<svg xmlns="http://www.w3.org/2000/svg" viewBox="0 0 1254 1254" width="1254" height="1254">
  <defs>
    <linearGradient id="dragonBlue" x1="0" y1="0" x2="1254" y2="0" gradientUnits="userSpaceOnUse">
      <stop offset="0%" stop-color="#0E2FAE"/>
      <stop offset="20%" stop-color="#1A4CCB"/>
      <stop offset="42%" stop-color="#2C73F2"/>
      <stop offset="68%" stop-color="#38A0FF"/>
      <stop offset="100%" stop-color="#53BEFF"/>
    </linearGradient>
  </defs>
  <path d="M433,1104 L434,1103 L435,1105 L434,1106 Z M441,1093 L442,1092 L443,1093 L442,1094 Z M442,1092 L443,1091 L444,1092 L443,1093 Z M446,1087 L447,1086 L448,1087 L447,1088 Z M492,1080 L493,1079 L494,1080 L493,1081 Z M460,1076 L461,1075 L462,1076 L461,1077 Z M463,1074 L464,1073 L465,1074 L464,1075 Z M577,1036 L578,1037 L577,1040 L576,1039 Z M577,1035 L578,1034 L579,1036 L578,1037 Z M563,1028 L564,1027 L565,1028 L564,1029 Z M564,1026 L565,1025 L566,1026 L565,1027 Z M741,1015 L742,1014 L743,1015 L742,1016 Z M446,1007 L447,1006 L448,1007 L447,1008 Z M447,1006 L448,1005 L449,1006 L448,1007 Z M769,1002 L770,1001 L771,1002 L770,1003 Z M455,998 L456,997 L457,998 L456,999 Z M456,997 L457,996 L458,997 L457,998 Z M457,996 L458,995 L459,996 L458,997 Z M540,989 L541,988 L542,989 L541,990 Z M699,983 L700,982 L701,983 L700,984 Z M580,983 L581,982 L582,984 L581,985 Z M548,983 L549,982 L550,983 L549,984 Z M581,982 L582,981 L583,982 L582,983 Z M551,981 L552,980 L553,981 L552,982 Z M542,979 L543,978 L544,979 L543,980 Z M555,978 L556,977 L558,978 L557,979 Z M549,977 L550,976 L551,977 L550,978 Z M550,976 L551,975 L552,976 L551,977 Z M551,975 L552,974 L553,975 L552,976 Z M552,974 L553,973 L555,974 L554,975 Z M554,973 L555,972 L556,973 L555,974 Z M725,972 L726,971 L727,972 L726,973 Z M555,972 L556,971 L557,972 L556,973 Z M615,971 L616,970 L617,971 L616,972 Z M739,970 L740,969 L741,970 L740,971 Z M719,968 L720,967 L721,968 L720,969 Z M667,966 L668,965 L670,966 L669,967 Z M606,966 L607,965 L608,966 L607,967 Z M564,966 L565,965 L567,966 L566,967 Z M565,967 L558,972 L556,971 L563,965 Z M524,966 L525,965 L526,966 L525,967 Z M607,965 L608,964 L609,965 L608,966 Z M563,965 L564,964 L565,965 L564,966 Z M564,964 L565,963 L566,964 L565,965 Z M629,963 L630,962 L633,963 L632,964 Z M565,963 L566,962 L567,963 L566,964 Z M603,962 L604,961 L605,962 L604,963 Z M590,962 L591,961 L592,962 L591,963 Z M567,962 L568,961 L569,962 L568,963 Z M708,961 L709,960 L710,961 L709,962 Z M604,961 L605,960 L607,961 L606,962 Z M568,961 L569,960 L570,961 L569,962 Z M706,960 L707,959 L708,960 L707,961 Z M704,959 L705,958 L707,959 L706,960 Z M612,958 L613,957 L620,958 L615,961 Z M565,958 L566,957 L567,958 L566,959 Z M542,957 L543,956 L544,957 L543,958 Z M719,954 L720,953 L721,954 L720,955 Z M584,951 L585,950 L586,951 L585,952 Z M585,950 L586,949 L588,950 L587,951 Z M587,949 L588,948 L590,949 L589,950 Z M589,948 L590,947 L593,948 L592,949 Z M555,948 L556,947 L558,948 L557,949 Z M546,946 L547,944 L549,945 L547,947 Z M544,944 L545,943 L547,944 L546,945 Z M693,943 L694,942 L695,943 L694,944 Z M689,941 L690,940 L692,941 L691,942 Z M693,939 L694,940 L693,943 L692,942 Z M686,940 L687,939 L689,940 L688,941 Z M691,939 L692,938 L693,939 L692,940 Z M516,933 L517,932 L518,933 L517,934 Z M613,932 L614,931 L616,932 L615,933 Z M517,932 L518,931 L519,932 L518,933 Z M533,931 L534,930 L536,931 L535,932 Z M535,930 L536,929 L538,930 L537,931 Z M537,929 L538,928 L540,929 L539,930 Z M944,923 L945,922 L946,923 L945,924 Z M902,923 L903,922 L904,923 L903,924 Z M620,933 L618,935 L593,934 L594,936 L600,936 L604,938 L592,944 L590,943 L591,944 L583,948 L568,958 L566,957 L565,958 L566,959 L564,961 L562,960 L563,959 L562,960 L563,961 L552,971 L535,977 L528,982 L538,979 L543,980 L528,998 L529,998 L537,991 L538,992 L537,991 L539,989 L541,990 L540,991 L542,989 L541,988 L547,983 L549,984 L550,983 L549,982 L550,981 L552,982 L553,979 L555,978 L557,979 L558,978 L557,977 L563,973 L565,974 L564,973 L565,972 L567,973 L566,972 L567,971 L569,972 L568,971 L569,970 L571,971 L570,970 L581,964 L586,963 L587,964 L586,965 L587,965 L586,963 L590,962 L591,963 L579,980 L574,991 L574,994 L579,985 L582,984 L583,982 L582,980 L588,973 L589,974 L588,973 L600,963 L602,964 L601,963 L602,962 L605,963 L608,958 L612,958 L613,959 L612,960 L615,961 L609,965 L608,964 L606,965 L607,967 L598,977 L590,991 L583,1016 L582,1027 L579,1034 L578,1032 L578,1034 L577,1035 L576,1034 L576,1030 L573,1023 L574,1020 L573,1021 L566,1012 L568,1004 L566,1006 L563,1014 L545,1041 L523,1063 L519,1065 L518,1064 L519,1065 L518,1066 L516,1065 L517,1066 L510,1070 L507,1071 L505,1070 L506,1071 L505,1072 L503,1071 L502,1068 L498,1066 L484,1066 L475,1069 L466,1074 L464,1073 L463,1076 L461,1075 L448,1087 L447,1086 L441,1093 L442,1094 L439,1098 L437,1096 L439,1098 L435,1104 L434,1103 L436,1091 L440,1083 L442,1075 L450,1060 L461,1044 L479,1024 L492,1007 L491,1003 L476,1000 L459,1002 L449,1006 L448,1005 L454,998 L456,999 L454,1001 L456,1001 L456,999 L459,996 L458,995 L461,992 L477,982 L479,983 L478,984 L480,983 L478,982 L481,980 L483,980 L484,981 L482,982 L484,981 L483,980 L486,978 L495,975 L501,976 L498,975 L509,971 L513,971 L522,967 L526,967 L528,966 L526,965 L541,957 L543,958 L544,957 L543,956 L548,951 L551,952 L549,951 L554,948 L557,949 L558,946 L560,947 L559,946 L563,943 L563,940 L552,935 L538,932 L544,931 L540,928 L543,926 L561,922 L583,922 L598,925 L614,931 L609,933 L616,933 L617,932 Z M943,922 L944,921 L945,922 L944,923 Z M910,922 L911,921 L912,922 L911,923 Z M901,922 L902,921 L903,922 L902,923 Z M942,921 L943,920 L944,921 L943,922 Z M933,922 L935,920 L937,923 L936,924 Z M932,921 L933,920 L934,921 L933,922 Z M931,920 L932,919 L933,920 L932,921 Z M909,920 L910,919 L911,921 L910,922 Z M941,919 L942,918 L943,920 L942,921 Z M909,915 L910,916 L909,920 L907,918 Z M957,908 L958,907 L959,909 L958,910 Z M919,908 L920,907 L921,908 L920,909 Z M958,906 L959,905 L960,907 L959,908 Z M918,906 L919,905 L920,907 L919,908 Z M903,904 L906,905 L909,910 L909,914 L908,915 L907,914 L908,915 L907,917 L905,915 L902,907 Z M861,904 L862,903 L863,904 L862,905 Z M848,902 L849,901 L850,902 L849,903 Z M953,898 L954,897 L955,898 L954,899 Z M850,894 L851,893 L852,894 L851,895 Z M837,894 L838,893 L841,896 L839,897 Z M848,893 L849,892 L850,893 L849,894 Z M841,892 L842,891 L843,892 L842,893 Z M934,889 L935,888 L936,889 L935,890 Z M933,888 L934,887 L935,888 L934,889 Z M932,887 L933,886 L934,887 L933,888 Z M945,885 L947,885 L952,890 L954,895 L953,898 L944,891 L943,888 Z M931,886 L932,885 L933,886 L932,887 Z M832,886 L833,885 L834,886 L833,887 Z M893,880 L894,881 L893,886 L892,885 Z M831,881 L832,880 L833,881 L832,882 Z M871,876 L872,875 L873,876 L872,877 Z M870,874 L871,873 L872,875 L871,876 Z M949,873 L950,872 L951,873 L950,874 Z M948,872 L949,871 L950,872 L949,873 Z M857,872 L858,871 L859,872 L858,873 Z M1032,870 L1033,869 L1034,870 L1033,871 Z M1030,869 L1031,868 L1032,870 L1031,871 Z M867,868 L871,872 L870,874 L869,873 L870,874 L869,875 L865,872 L865,870 Z M861,860 L862,859 L863,860 L862,861 Z M865,854 L866,853 L867,854 L866,855 Z M862,853 L863,852 L865,853 L864,854 Z M880,841 L881,840 L882,842 L881,843 Z M879,839 L880,838 L881,840 L880,841 Z M1016,828 L1017,827 L1018,828 L1017,829 Z M643,826 L644,825 L645,826 L644,827 Z M763,823 L764,822 L765,823 L764,824 Z M1009,817 L1010,816 L1011,817 L1010,818 Z M755,805 L756,804 L757,805 L756,806 Z M754,804 L755,803 L756,804 L755,805 Z M905,803 L906,802 L907,804 L906,805 Z M753,802 L754,801 L755,803 L754,804 Z M463,802 L464,801 L465,802 L464,803 Z M752,801 L753,800 L754,801 L753,802 Z M452,801 L453,800 L454,801 L453,802 Z M903,800 L904,799 L905,800 L904,801 Z M451,800 L452,799 L453,800 L452,801 Z M673,799 L674,798 L675,799 L674,800 Z M450,798 L451,797 L452,798 L451,799 Z M887,796 L888,795 L889,796 L888,797 Z M458,796 L459,795 L460,796 L459,797 Z M462,793 L464,799 L463,802 L459,798 L460,796 L461,797 Z M457,794 L458,793 L459,795 L458,796 Z M648,791 L649,792 L648,798 L647,797 Z M456,792 L457,791 L458,793 L457,794 Z M658,787 L659,786 L660,787 L659,788 Z M680,786 L681,785 L682,786 L681,787 Z M617,786 L618,785 L619,786 L618,787 Z M679,784 L680,783 L681,784 L680,785 Z M875,783 L876,782 L877,783 L876,784 Z M874,782 L875,781 L876,782 L875,783 Z M873,781 L874,780 L875,781 L874,782 Z M872,780 L873,779 L874,780 L873,781 Z M462,779 L463,778 L464,780 L463,781 Z M871,778 L872,777 L873,778 L872,779 Z M978,774 L979,773 L984,774 L983,775 Z M474,773 L475,772 L476,773 L475,774 Z M506,772 L507,771 L508,773 L507,774 Z M805,771 L806,770 L807,771 L806,772 Z M608,771 L609,770 L610,771 L609,772 Z M513,771 L514,770 L515,771 L514,772 Z M475,772 L477,770 L478,771 L477,773 Z M447,769 L448,770 L447,773 L446,772 Z M609,769 L610,768 L611,769 L610,770 Z M428,768 L429,767 L430,769 L429,770 Z M782,767 L783,766 L784,767 L783,768 Z M461,767 L462,766 L463,767 L462,768 Z M457,766 L460,766 L462,769 L463,767 L466,773 L464,778 L463,776 L462,779 L463,784 L462,785 L461,783 L462,785 L462,792 L461,793 L460,788 L460,791 L456,792 L453,786 L453,774 L455,770 L456,771 L455,769 Z M460,766 L461,765 L462,766 L461,767 Z M457,765 L458,764 L461,765 L460,766 Z M489,761 L490,760 L491,761 L490,762 Z M490,760 L491,759 L492,760 L491,761 Z M480,758 L481,757 L482,758 L481,759 Z M500,757 L501,756 L502,757 L501,758 Z M481,757 L482,756 L483,757 L482,758 Z M435,757 L436,756 L437,757 L436,758 Z M482,756 L483,755 L484,756 L483,757 Z M436,756 L437,755 L438,756 L437,757 Z M620,755 L621,754 L622,755 L621,756 Z M499,755 L500,754 L501,755 L500,756 Z M483,755 L484,754 L485,755 L484,756 Z M672,753 L673,754 L672,757 L671,756 Z M498,754 L499,753 L500,754 L499,755 Z M484,754 L485,753 L486,754 L485,755 Z M437,754 L438,753 L439,754 L438,755 Z M485,753 L486,752 L487,753 L486,754 Z M438,753 L439,752 L440,753 L439,754 Z M751,752 L752,751 L754,752 L753,753 Z M486,752 L487,751 L488,752 L487,753 Z M749,751 L750,750 L752,751 L751,752 Z M672,751 L673,750 L674,752 L673,753 Z M505,751 L506,750 L507,752 L506,753 Z M487,751 L488,750 L489,751 L488,752 Z M672,745 L673,746 L672,751 L671,750 Z M766,745 L767,744 L769,745 L768,746 Z M736,743 L750,750 L748,751 L752,753 L756,752 L765,757 L763,758 L767,757 L781,764 L783,766 L782,767 L785,770 L783,768 L785,767 L789,771 L788,773 L789,772 L791,774 L794,789 L799,789 L813,797 L811,798 L813,797 L822,804 L821,805 L823,804 L837,813 L839,821 L838,825 L840,826 L842,830 L843,835 L849,848 L858,858 L860,858 L862,861 L863,860 L865,862 L861,875 L858,873 L859,871 L856,872 L853,870 L853,872 L856,876 L856,879 L861,886 L860,887 L861,886 L862,887 L862,891 L859,892 L860,899 L862,902 L861,904 L858,903 L853,898 L852,894 L846,890 L841,878 L840,878 L842,885 L842,891 L840,892 L838,890 L840,888 L839,887 L838,890 L833,887 L834,886 L832,873 L829,864 L828,856 L822,841 L823,839 L822,840 L811,821 L797,817 L779,816 L764,812 L756,806 L757,805 L753,800 L752,801 L745,789 L744,786 L745,783 L744,784 L740,775 L738,767 L739,759 L738,763 L737,762 L738,755 L737,758 L735,752 L735,744 Z M734,743 L735,742 L736,743 L735,744 Z M949,741 L950,740 L951,741 L950,742 Z M769,741 L770,740 L771,741 L770,742 Z M443,740 L444,741 L444,749 L441,753 L439,752 L440,751 L436,755 L435,753 L436,759 L430,773 L429,770 L431,761 L430,761 L429,766 L427,764 L430,751 L432,747 L438,741 Z M948,740 L949,739 L950,740 L949,741 Z M721,739 L722,740 L721,743 L720,742 Z M946,739 L947,738 L948,739 L947,740 Z M945,738 L946,737 L947,738 L946,739 Z M773,738 L774,737 L775,738 L774,739 Z M751,738 L752,737 L754,738 L753,739 Z M944,737 L945,736 L946,737 L945,738 Z M749,737 L750,736 L752,737 L751,738 Z M776,735 L778,737 L782,749 L781,751 L771,747 L773,746 L771,747 L768,746 L770,745 L768,744 L771,741 L770,740 L772,738 L774,739 L775,738 L774,737 Z M438,729 L439,728 L440,729 L439,730 Z M672,728 L673,727 L674,729 L673,730 Z M439,728 L440,727 L441,728 L440,729 Z M726,725 L727,724 L729,725 L728,726 Z M524,725 L525,724 L526,726 L525,727 Z M466,725 L467,724 L469,725 L468,726 Z M161,724 L162,725 L161,728 L160,727 Z M468,724 L469,723 L470,724 L469,725 Z M722,723 L723,722 L725,723 L724,724 Z M471,722 L472,721 L473,722 L472,723 Z M472,721 L473,720 L474,721 L473,722 Z M473,720 L474,719 L475,720 L474,721 Z M474,719 L475,718 L476,719 L475,720 Z M907,718 L908,717 L909,718 L908,719 Z M475,718 L476,717 L477,718 L476,719 Z M906,717 L907,716 L908,717 L907,718 Z M476,717 L477,716 L478,717 L477,718 Z M905,716 L906,715 L907,716 L906,717 Z M729,716 L730,715 L731,716 L730,717 Z M531,716 L532,715 L533,716 L532,717 Z M477,716 L478,715 L479,716 L478,717 Z M730,715 L731,714 L732,715 L731,716 Z M731,714 L732,713 L733,714 L732,715 Z M732,713 L733,712 L734,713 L733,714 Z M733,712 L734,711 L735,712 L734,713 Z M710,712 L711,711 L713,712 L712,713 Z M734,711 L735,710 L736,711 L735,712 Z M521,711 L522,710 L523,711 L522,712 Z M735,710 L736,709 L737,710 L736,711 Z M690,710 L691,709 L692,710 L691,711 Z M692,709 L693,708 L694,709 L693,710 Z M895,707 L896,706 L897,707 L896,708 Z M695,707 L696,706 L697,707 L696,708 Z M894,706 L895,705 L896,706 L895,707 Z M701,703 L702,702 L704,703 L703,704 Z M531,703 L532,702 L534,703 L533,704 Z M703,702 L704,701 L705,702 L704,703 Z M725,701 L726,700 L727,701 L726,702 Z M905,700 L906,699 L907,700 L906,701 Z M726,700 L727,699 L728,700 L727,701 Z M904,699 L905,698 L906,699 L905,700 Z M727,699 L728,698 L729,699 L728,700 Z M709,698 L710,697 L711,698 L710,699 Z M646,698 L647,697 L648,698 L647,699 Z M647,697 L648,696 L649,697 L648,698 Z M166,696 L167,697 L166,703 L168,703 L169,705 L162,723 L161,722 L162,711 L163,710 L164,713 L165,707 L164,710 L163,706 Z M648,696 L649,695 L650,696 L649,697 Z M553,696 L554,695 L558,696 L557,697 Z M489,696 L490,695 L491,697 L490,698 Z M882,695 L883,694 L884,695 L883,696 Z M881,694 L882,693 L883,694 L882,695 Z M490,694 L491,693 L492,695 L491,696 Z M897,693 L898,692 L899,693 L898,694 Z M880,693 L881,692 L882,693 L881,694 Z M491,692 L492,691 L493,693 L492,694 Z M718,691 L719,690 L720,691 L719,692 Z M719,690 L720,689 L721,690 L720,691 Z M720,689 L721,688 L722,689 L721,690 Z M721,688 L722,687 L723,688 L722,689 Z M722,687 L723,686 L724,687 L723,688 Z M723,686 L724,685 L725,686 L724,687 Z M579,686 L580,685 L581,686 L580,687 Z M724,685 L725,684 L726,685 L725,686 Z M743,683 L738,700 L735,705 L726,713 L724,712 L725,713 L720,716 L710,715 L708,713 L709,712 L714,713 L712,711 L714,709 L716,710 L715,711 L716,710 L715,709 L725,701 L726,702 L729,700 L728,698 L742,682 Z M742,681 L743,680 L744,681 L743,682 Z M641,680 L642,679 L644,680 L643,681 Z M899,679 L900,678 L902,679 L901,680 Z M660,679 L661,678 L662,679 L661,680 Z M864,678 L865,677 L866,678 L865,679 Z M636,678 L640,677 L642,679 L640,680 Z M661,677 L662,676 L663,677 L662,678 Z M506,676 L507,675 L508,676 L507,677 Z M662,675 L663,674 L664,675 L663,676 Z M510,674 L511,673 L513,674 L512,675 Z M595,673 L596,672 L597,673 L596,674 Z M516,671 L517,670 L518,671 L517,672 Z M879,670 L880,669 L882,670 L881,671 Z M877,669 L878,668 L880,669 L879,670 Z M875,668 L876,667 L878,668 L877,669 Z M873,667 L874,666 L876,667 L875,668 Z M871,666 L872,665 L874,666 L873,667 Z M523,666 L524,665 L525,666 L524,667 Z M869,665 L870,664 L872,665 L871,666 Z M608,665 L609,664 L610,665 L609,666 Z M524,665 L525,664 L526,665 L525,666 Z M868,664 L869,663 L870,664 L869,665 Z M652,664 L653,663 L654,664 L653,665 Z M606,664 L607,663 L608,664 L607,665 Z M525,664 L526,663 L527,664 L526,665 Z M841,663 L842,662 L843,663 L842,664 Z M653,663 L654,662 L655,663 L654,664 Z M605,663 L606,662 L607,663 L606,664 Z M840,662 L841,661 L842,662 L841,663 Z M654,662 L655,661 L656,662 L655,663 Z M603,662 L604,661 L605,662 L604,663 Z M839,661 L840,660 L841,661 L840,662 Z M1022,875 L1025,894 L1025,929 L1023,936 L1023,943 L1015,972 L1003,997 L988,1018 L965,1039 L941,1053 L912,1062 L898,1063 L897,1064 L864,1063 L840,1058 L811,1047 L776,1027 L704,973 L696,968 L677,959 L678,958 L677,959 L673,958 L672,955 L671,955 L673,956 L670,957 L656,952 L641,949 L645,948 L641,949 L614,949 L611,948 L614,949 L599,952 L595,954 L593,954 L592,953 L594,952 L590,953 L592,953 L593,954 L592,955 L584,957 L577,961 L574,959 L576,961 L568,966 L566,965 L570,962 L569,960 L579,953 L582,952 L583,953 L582,954 L583,951 L585,952 L590,949 L595,948 L596,947 L595,948 L592,947 L607,941 L625,938 L647,938 L665,941 L678,946 L676,947 L680,946 L683,948 L681,949 L685,948 L686,949 L684,950 L688,949 L689,950 L687,951 L689,952 L688,951 L690,950 L697,953 L701,956 L700,957 L701,956 L704,957 L705,960 L709,962 L711,961 L712,964 L711,963 L713,962 L718,966 L717,967 L719,966 L720,969 L722,968 L724,970 L723,971 L725,970 L726,973 L728,972 L729,973 L728,974 L730,973 L732,975 L731,976 L733,975 L742,982 L741,983 L742,984 L741,983 L743,982 L758,993 L757,994 L759,993 L770,1001 L769,1002 L770,1003 L771,1002 L774,1003 L784,1010 L812,1024 L811,1025 L814,1024 L815,1025 L814,1026 L816,1025 L817,1027 L819,1026 L839,1033 L867,1037 L880,1037 L881,1036 L897,1035 L923,1027 L944,1015 L953,1008 L968,992 L969,993 L968,992 L979,974 L980,973 L981,974 L980,972 L985,962 L991,939 L992,915 L989,896 L983,880 L984,877 L983,878 L975,863 L976,861 L975,862 L973,860 L968,851 L969,850 L968,851 L956,835 L924,804 L915,798 L907,788 L902,787 L893,782 L885,775 L878,766 L873,757 L870,748 L864,702 L860,694 L857,683 L842,664 L843,659 L846,659 L847,660 L846,661 L847,660 L859,671 L864,677 L863,678 L868,680 L881,692 L880,693 L883,696 L884,695 L895,705 L894,706 L896,708 L897,707 L906,715 L905,716 L908,719 L910,718 L917,725 L916,726 L917,725 L936,742 L972,780 L989,802 L1001,821 L1012,843 Z M838,660 L839,659 L840,660 L839,661 Z M837,659 L838,658 L839,659 L838,660 Z M836,658 L837,657 L838,658 L837,659 Z M669,659 L670,661 L669,665 L665,673 L662,674 L660,679 L661,681 L658,682 L659,681 L660,683 L657,686 L649,684 L646,682 L647,681 L645,682 L644,681 L645,680 L640,677 L655,669 L666,657 Z M840,656 L841,655 L844,658 L842,660 L840,658 Z M534,655 L535,654 L536,655 L535,656 Z M535,654 L536,653 L537,654 L536,655 Z M669,652 L671,656 L670,661 L669,658 L666,657 Z M662,653 L663,652 L664,653 L663,654 Z M663,651 L664,650 L665,652 L664,653 Z M584,648 L585,647 L586,648 L585,649 Z M583,647 L584,646 L585,647 L584,648 Z M332,645 L333,644 L334,645 L333,646 Z M580,644 L581,643 L582,644 L581,645 Z M661,643 L662,642 L663,643 L662,644 Z M564,642 L566,644 L565,646 L566,644 L580,660 L596,672 L594,673 L594,677 L586,684 L584,683 L585,682 L584,685 L578,686 L580,687 L579,688 L576,687 L577,688 L567,694 L565,694 L564,693 L565,692 L563,693 L565,694 L561,696 L554,695 L552,696 L554,697 L553,698 L546,699 L545,698 L546,697 L548,697 L543,698 L545,698 L546,699 L545,700 L542,700 L535,703 L533,702 L531,703 L529,701 L527,704 L526,703 L527,705 L524,709 L523,708 L524,710 L521,711 L522,713 L519,714 L520,713 L521,715 L517,721 L516,719 L517,722 L515,726 L514,724 L515,733 L520,740 L519,746 L521,752 L520,761 L517,766 L516,764 L517,767 L515,770 L514,769 L514,759 L511,754 L511,751 L509,751 L509,753 L507,754 L506,749 L505,751 L503,747 L497,747 L490,751 L488,750 L480,758 L481,760 L479,770 L478,771 L476,770 L474,772 L474,774 L472,775 L471,769 L466,762 L463,760 L456,761 L455,760 L458,753 L468,746 L468,744 L465,746 L463,745 L464,746 L463,747 L458,748 L448,754 L447,753 L449,749 L449,739 L445,734 L447,732 L453,732 L454,733 L453,734 L448,734 L451,736 L454,733 L463,734 L476,728 L487,717 L498,700 L502,691 L504,689 L506,690 L504,689 L508,685 L521,679 L531,671 L533,672 L532,671 L555,648 L558,646 L563,646 Z M596,642 L597,641 L598,643 L597,644 Z M367,642 L368,641 L369,642 L368,643 Z M330,642 L331,641 L332,642 L331,643 Z M209,642 L210,641 L211,642 L210,643 Z M562,641 L563,640 L564,642 L563,643 Z M341,641 L342,640 L343,642 L342,643 Z M210,641 L211,640 L212,641 L211,642 Z M595,640 L596,639 L597,640 L596,641 Z M561,640 L562,639 L563,640 L562,641 Z M211,640 L212,639 L213,640 L212,641 Z M340,639 L341,638 L342,640 L341,641 Z M328,639 L329,638 L330,639 L329,640 Z M750,636 L751,637 L750,640 L749,639 Z M338,636 L339,635 L340,636 L339,637 Z M337,634 L338,633 L339,635 L338,636 Z M336,633 L337,632 L338,633 L337,634 Z M570,631 L571,630 L572,631 L571,632 Z M335,631 L336,630 L337,632 L336,633 Z M569,630 L570,629 L571,630 L570,631 Z M568,628 L569,627 L570,628 L569,629 Z M567,626 L568,625 L569,627 L568,628 Z M178,624 L179,623 L180,624 L179,625 Z M199,621 L200,620 L201,622 L200,623 Z M179,620 L180,619 L181,621 L180,622 Z M649,614 L650,613 L651,614 L650,615 Z M587,612 L588,613 L587,617 L586,616 Z M541,612 L542,611 L543,612 L542,613 Z M539,611 L540,610 L541,611 L540,612 Z M537,610 L538,609 L539,610 L538,611 Z M535,609 L536,608 L537,609 L536,610 Z M532,608 L533,607 L535,608 L534,609 Z M183,606 L185,610 L181,619 L180,615 Z M770,605 L771,604 L773,605 L772,606 Z M767,603 L768,602 L769,603 L768,604 Z M765,602 L766,601 L767,602 L766,603 Z M558,601 L559,602 L558,605 L557,604 Z M516,602 L517,601 L519,602 L518,603 Z M533,598 L534,597 L535,598 L534,599 Z M185,596 L186,599 L188,598 L189,599 L185,608 L183,605 Z M543,595 L545,600 L544,603 L538,600 L542,599 Z M477,595 L478,594 L486,594 L487,595 L486,596 L478,596 Z M1077,593 L1078,594 L1078,624 L1077,625 L1074,616 L1074,607 L1073,606 L1073,600 L1074,599 L1076,601 L1076,594 Z M542,592 L543,593 L542,596 L541,595 Z M186,592 L187,593 L186,597 L185,596 Z M207,592 L208,591 L209,592 L208,593 Z M1073,590 L1074,591 L1073,596 L1072,595 Z M749,591 L750,590 L751,591 L750,592 Z M1043,590 L1044,589 L1045,590 L1044,591 Z M747,590 L748,589 L749,590 L748,591 Z M1041,589 L1042,588 L1043,589 L1042,590 Z M746,589 L747,588 L748,589 L747,590 Z M745,588 L746,587 L747,588 L746,589 Z M743,587 L744,586 L746,587 L745,588 Z M209,587 L210,586 L211,588 L210,589 Z M529,586 L530,585 L531,587 L530,588 Z M760,584 L761,583 L762,584 L761,585 Z M529,582 L530,583 L529,586 L528,585 Z M757,581 L758,580 L759,581 L758,582 Z M756,580 L757,579 L758,580 L757,581 Z M619,580 L620,579 L623,580 L622,581 Z M537,579 L542,590 L542,592 L541,593 L540,591 L542,597 L540,598 L539,596 L538,600 L533,584 L534,582 L535,583 L535,581 Z M532,580 L533,579 L534,581 L533,582 Z M755,579 L756,578 L757,579 L756,580 Z M590,579 L591,578 L593,579 L592,580 Z M533,578 L534,577 L535,579 L534,580 Z M531,578 L532,577 L533,579 L532,580 Z M527,577 L529,580 L528,583 L526,580 Z M536,576 L537,577 L536,580 L535,579 Z M530,576 L531,575 L532,577 L531,578 Z M534,575 L535,574 L536,576 L535,577 Z M635,574 L636,573 L637,574 L636,575 Z M533,574 L534,573 L535,574 L534,575 Z M531,574 L532,573 L533,574 L532,575 Z M529,574 L530,573 L531,575 L530,576 Z M636,573 L637,572 L639,573 L638,574 Z M532,572 L533,571 L534,573 L533,574 Z M590,571 L591,570 L593,571 L592,572 Z M531,570 L532,569 L533,571 L532,572 Z M590,566 L591,567 L590,571 L589,570 Z M774,566 L775,565 L776,566 L775,567 Z M517,563 L518,562 L519,563 L518,564 Z M752,562 L753,561 L754,562 L753,563 Z M522,562 L523,561 L525,564 L524,565 Z M526,560 L532,568 L530,570 L529,574 L524,566 L526,563 L525,562 Z M523,561 L524,560 L525,561 L524,562 Z M521,561 L522,560 L523,561 L522,562 Z M524,560 L525,559 L526,560 L525,561 Z M520,560 L521,559 L522,560 L521,561 Z M779,559 L780,558 L781,559 L780,560 Z M754,559 L755,558 L756,559 L755,560 Z M523,559 L524,558 L525,559 L524,560 Z M780,558 L781,557 L782,558 L781,559 Z M541,558 L542,557 L543,558 L542,559 Z M522,558 L523,557 L524,558 L523,559 Z M519,558 L520,557 L521,559 L520,560 Z M781,557 L782,556 L783,557 L782,558 Z M755,557 L756,556 L757,558 L756,559 Z M521,557 L522,556 L523,557 L522,558 Z M518,557 L519,556 L520,557 L519,558 Z M782,556 L783,555 L784,556 L783,557 Z M517,556 L518,555 L519,556 L518,557 Z M783,555 L784,554 L785,555 L784,556 Z M520,555 L521,554 L522,555 L521,556 Z M784,554 L785,553 L786,554 L785,555 Z M519,554 L520,553 L521,554 L520,555 Z M785,553 L786,552 L787,553 L786,554 Z M654,553 L655,552 L656,553 L655,554 Z M518,553 L519,552 L520,553 L519,554 Z M786,552 L787,551 L788,552 L787,553 Z M655,552 L656,551 L657,552 L656,553 Z M787,551 L788,550 L789,551 L788,552 Z M793,546 L794,545 L795,546 L794,547 Z M796,544 L797,543 L798,544 L797,545 Z M508,543 L509,542 L510,543 L509,544 Z M507,542 L508,541 L509,542 L508,543 Z M778,541 L779,540 L780,541 L779,542 Z M505,541 L506,540 L508,541 L507,542 Z M780,540 L781,539 L782,540 L781,541 Z M504,540 L505,539 L506,540 L505,541 Z M803,539 L804,538 L805,539 L804,540 Z M503,539 L504,538 L505,539 L504,540 Z M502,538 L503,537 L504,538 L503,539 Z M786,537 L787,536 L789,537 L788,538 Z M501,537 L502,536 L503,537 L502,538 Z M790,535 L791,534 L793,535 L792,536 Z M801,532 L802,531 L803,532 L802,533 Z M804,532 L805,533 L803,535 L795,539 L793,538 L794,539 L782,547 L772,556 L764,567 L760,584 L758,582 L759,578 L755,579 L750,572 L751,563 L752,562 L753,564 L754,562 L753,560 L754,559 L755,560 L757,558 L756,556 L762,551 L763,552 L762,551 L764,549 L766,550 L765,549 L775,542 L777,543 L776,542 L777,541 L779,542 L783,540 L782,539 L784,537 L788,538 L789,535 L792,536 L794,535 L792,534 L799,530 L802,531 L800,532 L801,533 L800,534 Z M219,531 L220,530 L221,531 L220,532 Z M801,530 L802,529 L804,530 L803,531 Z M513,529 L514,528 L515,529 L514,530 Z M241,527 L242,526 L243,527 L242,528 Z M689,525 L690,526 L689,529 L688,528 Z M509,526 L510,525 L511,526 L510,527 Z M698,522 L699,521 L700,522 L699,523 Z M699,521 L700,520 L701,521 L700,522 Z M700,520 L701,519 L702,520 L701,521 Z M701,519 L702,518 L703,519 L702,520 Z M702,518 L703,517 L704,518 L703,519 Z M498,518 L499,517 L500,518 L499,519 Z M249,518 L244,526 L241,527 L242,529 L234,543 L233,544 L232,543 L233,545 L230,549 L229,548 L230,550 L224,560 L223,559 L224,561 L212,586 L209,587 L210,590 L209,591 L208,590 L207,592 L208,595 L201,613 L196,622 L195,629 L191,637 L189,646 L196,628 L198,625 L199,626 L198,624 L199,623 L200,624 L201,622 L200,619 L208,601 L245,526 L249,520 Z M496,517 L497,516 L499,517 L498,518 Z M495,516 L496,515 L497,516 L496,517 Z M705,515 L706,514 L707,515 L706,516 Z M493,515 L494,514 L496,515 L495,516 Z M707,514 L708,513 L709,514 L708,515 Z M546,514 L547,513 L548,514 L547,515 Z M545,513 L546,512 L547,513 L546,514 Z M544,512 L545,511 L546,512 L545,513 Z M682,511 L683,510 L684,512 L683,513 Z M444,509 L445,508 L451,509 L450,510 Z M680,507 L681,506 L682,508 L681,509 Z M479,507 L480,506 L482,507 L481,508 Z M253,507 L254,506 L255,507 L254,508 Z M598,505 L599,509 L597,511 L596,508 Z M679,505 L680,504 L681,506 L680,507 Z M678,503 L679,502 L680,504 L679,505 Z M645,502 L646,501 L647,502 L646,503 Z M741,501 L742,500 L743,501 L742,502 Z M846,500 L847,499 L850,500 L849,501 Z M721,500 L722,499 L723,500 L722,501 Z M711,500 L712,499 L720,499 L721,500 L720,501 L712,501 Z M464,500 L465,499 L467,500 L466,501 Z M744,498 L745,497 L746,498 L745,499 Z M708,499 L710,497 L712,499 L711,500 Z M759,497 L760,496 L763,497 L762,498 Z M456,497 L457,496 L460,497 L459,498 Z M532,495 L533,494 L536,495 L535,496 Z M672,494 L673,493 L674,494 L673,495 Z M529,494 L530,493 L533,494 L532,495 Z M527,493 L528,492 L530,493 L529,494 Z M671,492 L672,491 L673,493 L672,494 Z M241,492 L242,491 L243,492 L242,493 Z M670,491 L671,490 L672,491 L671,492 Z M669,490 L670,489 L671,490 L670,491 Z M879,489 L880,488 L881,489 L880,490 Z M880,488 L881,487 L882,488 L881,489 Z M668,488 L669,487 L670,488 L669,489 Z M265,488 L266,487 L267,488 L266,489 Z M881,487 L882,486 L883,487 L882,488 Z M667,487 L668,486 L669,487 L668,488 Z M513,487 L514,486 L516,487 L515,488 Z M882,486 L883,485 L884,486 L883,487 Z M511,486 L512,485 L514,486 L513,487 Z M266,486 L267,485 L268,486 L267,487 Z M510,485 L511,484 L512,485 L511,486 Z M883,484 L884,483 L885,484 L884,485 Z M884,483 L885,482 L886,483 L885,484 Z M268,483 L269,482 L270,483 L269,484 Z M885,482 L886,481 L887,482 L886,483 Z M248,480 L249,479 L250,480 L249,481 Z M497,477 L498,476 L499,477 L498,478 Z M495,476 L496,475 L498,476 L497,477 Z M814,475 L815,474 L817,475 L816,476 Z M494,475 L495,474 L496,475 L495,476 Z M493,474 L494,473 L495,474 L494,475 Z M840,473 L841,472 L842,473 L841,474 Z M492,473 L493,472 L494,473 L493,474 Z M275,473 L276,472 L277,473 L276,474 Z M276,472 L277,471 L278,472 L277,473 Z M277,470 L278,469 L279,470 L278,471 Z M256,468 L257,467 L258,468 L257,469 Z M655,467 L656,466 L657,468 L656,469 Z M280,466 L281,465 L282,466 L281,467 Z M257,466 L258,465 L259,466 L258,467 Z M829,465 L830,464 L832,465 L831,466 Z M654,465 L655,464 L656,466 L655,467 Z M600,465 L601,464 L602,465 L601,466 Z M831,464 L832,463 L833,464 L832,465 Z M483,464 L484,463 L485,464 L484,465 Z M832,463 L833,462 L834,463 L833,464 Z M482,462 L483,461 L484,463 L483,464 Z M627,461 L628,460 L631,461 L630,462 Z M603,461 L604,460 L606,461 L605,462 Z M481,461 L482,460 L483,461 L482,462 Z M602,460 L603,459 L604,460 L603,461 Z M261,460 L262,459 L263,460 L262,461 Z M600,459 L601,458 L602,459 L601,460 Z M464,459 L465,458 L466,460 L465,461 Z M599,458 L600,457 L601,458 L600,459 Z M598,457 L599,456 L600,457 L599,458 Z M463,457 L464,456 L465,458 L464,459 Z M295,457 L296,456 L297,457 L296,458 Z M842,455 L843,454 L844,455 L843,456 Z M462,455 L463,454 L464,456 L463,457 Z M843,454 L844,453 L845,454 L844,455 Z M642,454 L643,453 L644,454 L643,455 Z M289,454 L290,453 L291,454 L290,455 Z M844,453 L845,452 L846,453 L845,454 Z M290,453 L291,452 L292,453 L291,454 Z M266,453 L267,452 L268,453 L267,454 Z M845,452 L846,451 L847,452 L846,453 Z M461,452 L462,451 L463,453 L462,454 Z M846,451 L847,450 L848,451 L847,452 Z M291,451 L292,450 L293,452 L292,453 Z M292,450 L293,449 L294,450 L293,451 Z M268,450 L269,449 L270,450 L269,451 Z M293,449 L294,448 L295,449 L294,450 Z M648,446 L649,447 L648,450 L647,449 Z M286,445 L287,444 L288,445 L287,446 Z M273,443 L274,442 L275,443 L274,444 Z M274,442 L275,441 L276,442 L275,443 Z M275,441 L276,440 L277,441 L276,442 Z M857,440 L858,439 L859,440 L858,441 Z M858,439 L859,438 L860,439 L859,440 Z M302,438 L303,437 L304,438 L303,439 Z M305,434 L306,433 L307,434 L306,435 Z M306,433 L307,432 L308,433 L307,434 Z M307,432 L308,431 L309,432 L308,433 Z M546,431 L547,430 L548,431 L547,432 Z M547,430 L548,429 L549,430 L548,431 Z M548,429 L549,428 L550,429 L549,430 Z M549,428 L550,427 L551,428 L550,429 Z M285,428 L286,427 L287,428 L286,429 Z M550,427 L551,426 L552,427 L551,428 Z M301,426 L302,425 L303,426 L302,427 Z M302,425 L303,424 L304,425 L303,426 Z M315,423 L316,422 L317,423 L316,424 Z M293,418 L294,417 L295,418 L294,419 Z M180,418 L181,417 L182,418 L181,419 Z M1180,417 L1181,416 L1182,417 L1181,418 Z M294,417 L295,416 L296,417 L295,418 Z M67,414 L68,413 L69,415 L68,416 Z M772,411 L773,410 L774,411 L773,412 Z M608,411 L609,410 L610,411 L609,412 Z M773,410 L774,409 L775,410 L774,411 Z M607,410 L608,409 L609,410 L608,411 Z M318,407 L319,406 L320,407 L319,408 Z M319,406 L320,405 L321,406 L320,407 Z M779,404 L780,403 L781,404 L780,405 Z M320,404 L322,402 L323,403 L322,405 Z M89,401 L90,400 L91,401 L90,402 Z M74,401 L75,400 L76,402 L75,403 Z M90,400 L91,399 L92,400 L91,401 Z M1175,399 L1176,398 L1177,399 L1176,400 Z M91,399 L92,398 L93,399 L92,400 Z M1174,398 L1175,397 L1176,398 L1175,399 Z M92,398 L93,397 L94,398 L93,399 Z M93,397 L94,396 L95,397 L94,398 Z M1173,396 L1174,395 L1175,396 L1174,397 Z M94,396 L95,395 L96,396 L95,397 Z M1168,395 L1169,394 L1170,395 L1169,396 Z M98,395 L99,394 L100,395 L99,396 Z M1179,393 L1186,407 L1185,409 L1176,400 Z M555,394 L556,393 L557,394 L556,395 Z M330,394 L331,393 L332,394 L331,395 Z M79,394 L80,393 L81,394 L80,395 Z M1177,393 L1178,392 L1179,393 L1178,394 Z M556,393 L557,392 L558,393 L557,394 Z M97,393 L98,392 L99,393 L98,394 Z M98,392 L99,391 L100,392 L99,393 Z M1176,391 L1177,390 L1178,392 L1177,393 Z M557,391 L558,390 L559,392 L558,393 Z M332,391 L333,390 L334,391 L333,392 Z M99,391 L100,390 L101,391 L100,392 Z M333,390 L334,389 L335,390 L334,391 Z M117,390 L118,389 L119,390 L118,391 Z M359,389 L360,388 L361,389 L360,390 Z M765,388 L766,387 L767,388 L766,389 Z M360,388 L361,387 L362,388 L361,389 Z M361,387 L362,386 L363,387 L362,388 Z M766,386 L767,385 L768,387 L767,388 Z M763,386 L764,385 L765,386 L764,387 Z M648,386 L649,385 L650,387 L649,388 Z M362,386 L363,385 L365,386 L364,387 Z M764,385 L765,384 L766,385 L765,386 Z M364,385 L365,384 L366,385 L365,386 Z M106,385 L107,384 L108,385 L107,386 Z M365,384 L366,383 L367,384 L366,385 Z M107,384 L108,383 L109,384 L108,385 Z M1159,383 L1160,382 L1161,383 L1160,384 Z M767,383 L768,382 L769,384 L768,385 Z M542,383 L543,382 L544,383 L543,384 Z M366,383 L367,382 L368,383 L367,384 Z M108,383 L109,382 L110,383 L109,384 Z M1158,382 L1159,381 L1160,382 L1159,383 Z M544,382 L545,381 L546,382 L545,383 Z M367,382 L368,381 L369,382 L368,383 Z M129,382 L130,381 L131,382 L130,383 Z M109,382 L110,381 L111,382 L110,383 Z M1157,381 L1158,380 L1159,381 L1158,382 Z M650,381 L651,380 L652,381 L651,382 Z M368,381 L369,380 L370,381 L369,382 Z M130,381 L131,380 L132,381 L131,382 Z M111,381 L112,380 L113,381 L112,382 Z M1156,380 L1157,379 L1158,380 L1157,381 Z M548,380 L549,379 L550,380 L549,381 Z M369,380 L370,379 L371,380 L370,381 Z M343,380 L344,379 L345,380 L344,381 Z M131,380 L132,379 L134,380 L133,381 Z M112,380 L113,379 L114,380 L113,381 Z M651,379 L652,378 L653,379 L652,380 Z M370,379 L371,378 L372,379 L371,380 Z M344,379 L345,378 L346,379 L345,380 Z M133,379 L134,378 L135,379 L134,380 Z M113,379 L114,378 L115,379 L114,380 Z M91,379 L92,378 L93,379 L92,380 Z M371,378 L372,377 L373,378 L372,379 Z M345,378 L346,377 L347,378 L346,379 Z M134,378 L135,377 L136,378 L135,379 Z M1159,377 L1160,376 L1161,377 L1160,378 Z M626,376 L635,382 L649,385 L648,386 L649,390 L646,402 L645,403 L644,402 L645,403 L645,412 L642,416 L643,415 L644,416 L643,429 L644,426 L645,427 L644,433 L645,432 L646,433 L648,445 L647,446 L646,444 L648,450 L646,453 L644,454 L643,453 L642,456 L633,461 L630,460 L625,461 L627,461 L628,462 L627,463 L611,462 L622,462 L623,463 L622,464 L610,464 L605,462 L606,461 L602,458 L602,456 L600,457 L599,456 L599,445 L600,444 L601,445 L601,452 L601,445 L600,444 L601,430 L602,429 L603,430 L603,433 L604,429 L602,428 L604,416 L606,414 L608,416 L606,417 L606,419 L609,416 L621,422 L632,421 L640,417 L632,419 L617,417 L611,414 L609,412 L610,411 L609,407 L608,408 L607,407 L613,390 L616,388 L615,386 L617,383 L618,384 L617,382 L621,376 L624,377 Z M346,377 L347,376 L348,377 L347,378 Z M1158,376 L1159,375 L1160,376 L1159,377 Z M347,376 L348,375 L349,376 L348,377 Z M1165,375 L1166,374 L1167,375 L1166,376 Z M624,375 L625,374 L626,375 L625,376 Z M621,375 L622,374 L623,375 L622,376 Z M348,375 L349,374 L350,375 L349,376 Z M1164,374 L1165,373 L1166,374 L1165,375 Z M769,374 L770,373 L771,374 L770,375 Z M622,374 L623,373 L624,374 L623,375 Z M758,373 L761,376 L761,374 Z M623,373 L624,372 L625,373 L624,374 Z M122,372 L123,371 L124,372 L123,373 Z M1162,371 L1163,370 L1164,371 L1163,372 Z M754,371 L755,370 L756,371 L755,372 Z M144,371 L145,370 L146,371 L145,372 Z M124,371 L125,370 L126,371 L125,372 Z M769,369 L770,370 L769,374 L768,373 Z M755,370 L756,369 L761,370 L765,378 L761,379 L755,373 L757,371 Z M699,370 L700,369 L702,370 L701,371 Z M145,370 L146,369 L148,370 L147,371 Z M125,370 L126,369 L127,370 L126,371 Z M752,369 L754,368 L755,370 L754,371 Z M657,369 L658,368 L659,369 L658,370 Z M147,369 L148,368 L149,369 L148,370 Z M127,369 L128,368 L129,369 L128,370 Z M101,369 L102,368 L103,369 L102,370 Z M128,368 L129,367 L130,368 L129,369 Z M672,367 L673,366 L674,367 L673,368 Z M384,367 L385,366 L386,367 L385,368 Z M357,367 L358,366 L359,367 L358,368 Z M673,366 L674,365 L675,366 L674,367 Z M385,366 L386,365 L387,366 L386,367 Z M358,366 L359,365 L360,366 L359,367 Z M131,366 L132,365 L133,366 L132,367 Z M691,365 L692,364 L693,365 L692,366 Z M674,365 L675,364 L676,365 L675,366 Z M577,365 L578,364 L579,366 L578,367 Z M386,365 L387,364 L389,365 L388,366 Z M359,365 L360,364 L361,365 L360,366 Z M758,365 L763,363 L768,365 L765,367 Z M388,364 L389,363 L390,364 L389,365 Z M360,364 L361,363 L362,364 L361,365 Z M761,363 L762,362 L763,363 L762,364 Z M740,363 L741,362 L742,363 L741,364 Z M389,363 L390,362 L391,363 L390,364 Z M361,363 L362,362 L363,363 L362,364 Z M688,362 L689,361 L690,362 L689,363 Z M362,362 L363,361 L364,362 L363,363 Z M136,362 L137,361 L139,362 L138,363 Z M687,361 L688,360 L689,361 L688,362 Z M363,361 L364,360 L365,361 L364,362 Z M686,360 L687,359 L688,360 L687,361 Z M364,360 L365,359 L366,360 L365,361 Z M140,360 L141,359 L142,360 L141,361 Z M738,359 L739,358 L740,360 L739,361 Z M684,359 L685,358 L687,359 L686,360 Z M633,359 L634,358 L635,359 L634,360 Z M737,358 L738,357 L739,358 L738,359 Z M666,358 L667,357 L668,358 L667,359 Z M667,357 L668,356 L669,357 L668,358 Z M368,357 L369,356 L370,357 L369,358 Z M369,356 L370,355 L371,356 L370,357 Z M753,355 L754,354 L755,355 L754,356 Z M744,355 L745,354 L746,356 L745,357 Z M399,355 L400,354 L401,355 L400,356 Z M370,355 L371,354 L372,355 L371,356 Z M752,354 L753,353 L754,354 L753,355 Z M743,354 L744,353 L745,354 L744,355 Z M627,354 L628,353 L629,354 L628,355 Z M400,354 L401,353 L402,354 L401,355 Z M371,354 L372,353 L373,354 L372,355 Z M751,353 L752,352 L753,353 L752,354 Z M372,353 L373,352 L374,353 L373,354 Z M750,352 L751,351 L752,352 L751,353 Z M742,352 L743,351 L744,353 L743,354 Z M373,352 L374,351 L375,352 L374,353 Z M152,352 L153,351 L154,352 L153,353 Z M749,351 L750,350 L751,351 L750,352 Z M676,351 L677,350 L678,351 L677,352 Z M438,350 L439,351 L438,356 L437,355 Z M153,351 L154,350 L156,351 L155,352 Z M1143,350 L1144,349 L1145,350 L1144,351 Z M748,350 L749,349 L750,350 L749,351 Z M1142,349 L1143,348 L1144,349 L1143,350 Z M758,349 L759,348 L760,349 L759,350 Z M157,349 L158,348 L159,349 L158,350 Z M1141,348 L1142,347 L1143,348 L1142,349 Z M158,348 L159,347 L161,348 L160,349 Z M1140,347 L1141,346 L1142,347 L1141,348 Z M757,347 L758,346 L759,347 L758,348 Z M409,347 L410,346 L411,347 L410,348 Z M1139,346 L1140,345 L1141,346 L1140,347 Z M687,346 L688,345 L690,346 L689,347 Z M1138,345 L1139,344 L1140,345 L1139,346 Z M794,345 L795,344 L796,345 L795,346 Z M686,345 L687,344 L688,345 L687,346 Z M670,345 L671,344 L672,345 L671,346 Z M653,345 L654,344 L656,345 L655,346 Z M381,345 L382,344 L383,345 L382,346 Z M163,345 L164,344 L166,345 L165,346 Z M1137,344 L1138,343 L1139,344 L1138,345 Z M800,344 L801,343 L805,344 L804,345 Z M795,344 L796,343 L797,344 L796,345 Z M737,344 L740,343 L746,346 L749,349 L748,350 L751,353 L750,354 L751,353 L753,356 L755,355 L762,362 L758,365 L756,365 L753,363 L754,362 L753,361 L754,362 L752,363 L748,359 L746,359 L745,358 L746,356 L747,357 L743,351 L742,352 L740,350 L742,346 L740,349 Z M655,344 L656,343 L659,344 L658,345 Z M382,344 L383,343 L384,344 L383,345 Z M144,344 L145,343 L146,344 L145,345 Z M969,343 L970,342 L971,343 L970,344 Z M796,343 L797,342 L799,343 L798,344 Z M677,350 L675,351 L677,352 L670,357 L668,356 L666,358 L667,359 L664,362 L663,361 L664,362 L659,368 L658,367 L656,370 L657,369 L658,371 L655,375 L654,374 L655,376 L653,378 L651,378 L651,380 L648,383 L643,383 L632,378 L626,371 L627,366 L635,359 L634,358 L642,351 L647,350 L648,347 L650,348 L649,347 L650,346 L652,347 L651,346 L652,345 L655,346 L659,344 L664,344 L659,344 L658,343 L659,342 L666,342 L670,343 L671,346 L673,345 Z M574,343 L575,342 L576,343 L575,344 Z M461,342 L462,343 L461,346 L460,345 Z M146,343 L147,342 L148,343 L147,344 Z M968,342 L969,341 L970,342 L969,343 Z M798,342 L799,341 L800,342 L799,343 Z M147,342 L148,341 L149,342 L148,343 Z M1150,341 L1151,340 L1152,341 L1151,342 Z M386,341 L387,340 L388,341 L387,342 Z M1149,340 L1150,339 L1151,340 L1150,341 Z M418,340 L419,339 L421,340 L420,341 Z M387,340 L388,339 L389,340 L388,341 Z M810,339 L811,338 L812,340 L811,341 Z M768,339 L769,338 L773,339 L772,340 Z M420,339 L421,338 L422,339 L421,340 Z M388,339 L389,338 L390,339 L389,340 Z M1130,338 L1131,337 L1132,338 L1131,339 Z M421,338 L422,337 L423,338 L422,339 Z M148,341 L152,337 L156,338 L150,342 Z M1129,337 L1130,336 L1131,337 L1130,338 Z M731,337 L732,336 L733,338 L732,339 Z M591,337 L592,336 L593,337 L592,338 Z M422,337 L423,336 L425,337 L424,338 Z M152,337 L153,336 L154,337 L153,338 Z M1128,336 L1129,335 L1130,336 L1129,337 Z M734,335 L735,340 L733,341 L732,339 Z M424,336 L425,335 L426,336 L425,337 Z M153,336 L154,335 L155,336 L154,337 Z M1127,335 L1128,334 L1129,335 L1128,336 Z M757,335 L758,334 L759,336 L758,337 Z M161,335 L157,338 L155,337 L159,334 Z M154,335 L155,334 L156,335 L155,336 Z M956,334 L957,333 L958,334 L957,335 Z M792,333 L794,333 L796,335 L796,337 L793,341 L791,337 Z M758,334 L759,333 L760,334 L759,335 Z M734,334 L735,333 L736,335 L735,336 Z M580,334 L581,333 L582,334 L581,335 Z M160,334 L161,333 L163,334 L162,335 Z M155,334 L156,333 L157,334 L156,335 Z M1145,333 L1146,332 L1147,334 L1146,335 Z M1141,333 L1143,332 L1146,335 L1147,334 L1150,339 L1148,340 Z M957,333 L958,332 L959,333 L958,334 Z M795,333 L796,332 L797,334 L796,335 Z M578,333 L579,332 L581,333 L580,334 Z M553,333 L554,332 L557,333 L556,334 Z M185,333 L186,332 L188,333 L187,334 Z M156,333 L157,332 L158,333 L157,334 Z M157,332 L158,331 L159,332 L158,333 Z M1144,331 L1145,330 L1146,332 L1145,333 Z M726,331 L732,330 L737,332 L733,333 L733,335 L730,337 Z M721,331 L722,330 L723,331 L722,332 Z M659,332 L662,330 L664,332 L663,333 Z M595,331 L596,330 L597,331 L596,332 Z M398,331 L399,330 L400,331 L399,332 Z M189,331 L190,330 L192,331 L191,332 Z M158,331 L159,330 L160,331 L159,332 Z M1143,330 L1144,329 L1145,330 L1144,331 Z M413,330 L414,329 L415,330 L414,331 Z M191,330 L192,329 L194,330 L193,331 Z M159,330 L160,329 L161,330 L160,331 Z M414,329 L415,328 L416,329 L415,330 Z M193,329 L194,328 L196,329 L195,330 Z M160,329 L161,328 L162,329 L161,330 Z M973,328 L974,327 L975,328 L974,329 Z M440,328 L441,327 L442,328 L441,329 Z M195,328 L196,327 L198,328 L197,329 Z M657,327 L658,326 L659,327 L658,328 Z M439,327 L440,326 L441,327 L440,328 Z M656,326 L657,325 L658,326 L657,327 Z M404,326 L405,325 L406,326 L405,327 Z M163,326 L164,325 L165,326 L164,327 Z M655,325 L656,324 L657,325 L656,326 Z M405,325 L406,324 L407,325 L406,326 Z M654,324 L655,323 L656,324 L655,325 Z M406,324 L407,323 L408,324 L407,325 Z M652,323 L653,322 L654,323 L653,324 Z M1110,322 L1111,321 L1112,322 L1111,323 Z M651,322 L652,321 L653,322 L652,323 Z M409,322 L410,321 L411,322 L410,323 Z M168,321 L169,320 L170,321 L169,322 Z M989,320 L990,319 L991,320 L990,321 Z M967,320 L968,319 L969,320 L968,321 Z M663,320 L664,319 L665,320 L664,321 Z M169,320 L170,319 L171,320 L170,321 Z M966,319 L967,318 L968,319 L967,320 Z M170,319 L171,318 L172,319 L171,320 Z M988,318 L989,317 L990,318 L989,319 Z M965,318 L966,317 L967,318 L966,319 Z M659,318 L660,317 L665,318 L663,320 Z M605,318 L606,317 L607,318 L606,319 Z M171,318 L172,317 L173,318 L172,319 Z M606,317 L607,316 L608,317 L607,318 Z M429,317 L430,316 L431,317 L430,318 Z M964,316 L965,315 L966,317 L965,318 Z M607,316 L608,315 L609,316 L608,317 Z M468,315 L469,316 L468,319 L467,318 Z M172,316 L173,315 L174,316 L173,317 Z M963,315 L964,314 L965,315 L964,316 Z M608,315 L609,314 L610,315 L609,316 Z M432,315 L433,314 L434,315 L433,316 Z M173,315 L174,314 L175,315 L174,316 Z M609,314 L610,313 L611,314 L610,315 Z M568,314 L569,313 L571,314 L570,315 Z M433,314 L434,313 L435,314 L434,315 Z M174,314 L175,313 L176,314 L175,315 Z M971,313 L972,312 L973,313 L972,314 Z M469,312 L470,313 L469,316 L468,315 Z M434,313 L435,312 L436,313 L435,314 Z M423,311 L424,310 L425,311 L424,312 Z M205,311 L206,310 L208,311 L207,312 Z M424,310 L425,309 L426,310 L425,311 Z M668,309 L669,308 L671,309 L670,310 Z M615,309 L616,308 L617,309 L616,310 Z M425,309 L426,308 L428,309 L427,310 Z M178,309 L179,308 L180,309 L179,310 Z M616,308 L617,307 L618,308 L617,309 Z M802,306 L803,305 L804,306 L803,307 Z M753,306 L754,305 L757,306 L756,307 Z M803,305 L804,304 L805,305 L804,306 Z M801,305 L802,304 L803,305 L802,306 Z M620,305 L621,304 L622,305 L621,306 Z M805,304 L806,303 L808,304 L807,305 Z M799,304 L800,303 L802,304 L801,305 Z M952,303 L953,302 L954,303 L953,304 Z M447,303 L448,302 L450,303 L449,304 Z M415,303 L416,302 L417,303 L416,304 Z M982,303 L983,301 L985,302 L983,304 Z M811,302 L812,301 L813,302 L812,303 Z M809,302 L810,301 L811,303 L810,304 Z M801,302 L803,301 L805,303 L803,305 Z M449,302 L450,301 L451,302 L450,303 Z M416,302 L417,301 L418,302 L417,303 Z M810,301 L811,300 L812,301 L811,302 Z M761,301 L762,300 L763,301 L762,302 Z M450,301 L451,300 L452,301 L451,302 Z M417,301 L418,300 L419,301 L418,302 Z M962,299 L972,311 L971,313 L970,312 L972,314 L973,313 L981,324 L980,326 L981,325 L986,331 L1003,359 L1026,404 L1040,437 L1049,465 L1051,468 L1062,507 L1061,511 L1062,510 L1063,511 L1073,557 L1072,566 L1073,564 L1074,565 L1073,570 L1074,568 L1076,575 L1076,582 L1077,583 L1077,590 L1076,591 L1075,590 L1074,591 L1073,589 L1072,591 L1071,590 L1066,556 L1064,552 L1061,536 L1059,533 L1058,520 L1043,468 L1034,443 L1022,415 L1023,413 L1022,414 L1018,405 L1000,371 L1001,369 L1000,370 L997,366 L998,364 L997,365 L995,363 L990,354 L991,352 L990,353 L985,346 L986,344 L985,345 L980,338 L981,337 L980,338 L974,330 L975,328 L974,327 L973,328 L968,322 L969,320 L964,314 L963,315 L956,308 L956,306 L961,301 L962,303 L961,301 Z M646,300 L647,299 L649,300 L648,301 Z M628,299 L632,300 L643,308 L642,309 L645,308 L650,311 L648,313 L642,315 L650,319 L652,321 L651,322 L658,328 L659,327 L662,330 L658,332 L660,333 L655,336 L652,335 L653,336 L650,338 L648,337 L649,338 L643,342 L642,341 L643,342 L629,354 L627,353 L628,355 L618,367 L608,384 L601,403 L596,422 L596,430 L593,447 L593,510 L592,511 L592,524 L590,526 L591,537 L588,553 L589,558 L587,561 L581,581 L580,604 L582,617 L588,634 L592,642 L602,655 L603,654 L597,645 L599,643 L598,641 L599,640 L621,639 L631,634 L634,634 L652,618 L655,626 L654,629 L655,628 L659,635 L658,638 L659,637 L662,641 L661,643 L662,644 L663,643 L667,648 L665,651 L664,650 L662,653 L663,655 L662,656 L661,655 L662,656 L659,659 L658,658 L659,660 L656,662 L655,661 L651,667 L644,671 L640,670 L642,671 L641,672 L635,671 L638,672 L633,674 L626,674 L623,672 L624,671 L621,672 L612,668 L608,663 L604,661 L602,662 L593,656 L587,650 L588,649 L584,646 L583,647 L581,645 L582,644 L581,643 L580,644 L571,633 L572,631 L570,629 L570,627 L568,625 L567,626 L566,625 L567,623 L566,624 L563,619 L564,616 L563,618 L560,613 L558,607 L559,604 L558,598 L558,601 L557,602 L556,601 L557,593 L556,597 L554,591 L554,566 L556,559 L557,564 L556,555 L559,546 L563,556 L562,529 L564,520 L564,511 L565,510 L566,511 L566,514 L567,510 L567,463 L567,509 L566,510 L565,509 L564,431 L565,430 L566,431 L566,441 L567,420 L567,430 L566,431 L565,430 L565,418 L567,408 L568,411 L567,408 L568,401 L569,407 L568,396 L572,379 L575,372 L576,374 L575,372 L576,369 L577,371 L576,367 L577,366 L578,368 L579,366 L578,362 L580,359 L581,360 L582,358 L581,360 L580,357 L583,352 L584,354 L583,352 L585,348 L587,349 L585,347 L588,342 L589,344 L588,342 L590,339 L591,340 L590,338 L593,337 L592,335 L595,331 L596,332 L597,331 L596,329 L597,328 L598,329 L597,328 L603,321 L604,322 L603,320 L605,318 L607,319 L611,315 L610,313 L614,309 L616,310 L619,305 L621,306 L623,305 L621,304 Z M607,300 L608,299 L609,300 L608,301 Z M451,300 L452,299 L454,300 L453,301 Z M418,300 L419,299 L420,300 L419,301 Z M758,299 L759,298 L760,299 L759,300 Z M740,299 L741,298 L742,299 L741,300 Z M645,299 L646,298 L647,299 L646,300 Z M608,299 L609,298 L610,299 L609,300 Z M453,299 L454,298 L455,299 L454,300 Z M419,299 L420,298 L421,299 L420,300 Z M757,298 L758,297 L759,298 L758,299 Z M606,298 L607,297 L609,298 L608,299 Z M440,298 L441,297 L442,298 L441,299 Z M186,298 L187,297 L188,298 L187,299 Z M756,297 L757,296 L758,297 L757,298 Z M604,297 L605,296 L607,297 L606,298 Z M441,297 L442,296 L443,297 L442,298 Z M187,297 L188,296 L189,297 L188,298 Z M755,296 L756,295 L757,296 L756,297 Z M457,296 L458,295 L459,296 L458,297 Z M239,296 L240,295 L242,296 L241,297 Z M816,295 L817,294 L818,295 L817,296 Z M754,295 L755,294 L756,295 L755,296 Z M738,295 L739,294 L744,295 L746,297 L745,300 L742,301 L741,300 L743,299 L743,297 L741,297 L740,299 Z M475,294 L476,295 L475,298 L474,297 Z M815,294 L816,293 L817,294 L816,295 Z M189,294 L190,293 L191,294 L190,295 Z M750,292 L751,291 L752,292 L751,293 Z M749,291 L750,290 L751,291 L750,292 Z M251,291 L252,290 L255,291 L254,292 Z M633,290 L634,289 L635,290 L634,291 Z M477,290 L478,289 L479,290 L478,291 Z M426,290 L427,289 L428,291 L427,292 Z M686,289 L687,288 L689,289 L688,290 Z M455,286 L460,294 L459,296 L457,295 L458,297 L456,299 L454,298 L455,297 L447,303 L448,304 L446,306 L445,305 L446,306 L437,313 L435,312 L432,315 L433,316 L432,317 L430,316 L429,317 L430,318 L417,329 L415,328 L411,334 L375,364 L320,419 L319,418 L320,420 L317,423 L316,422 L315,423 L316,424 L314,426 L313,425 L314,426 L312,429 L305,434 L306,436 L304,438 L303,437 L302,438 L303,440 L299,444 L298,443 L299,444 L298,446 L290,452 L289,454 L290,456 L284,463 L283,462 L284,464 L282,466 L281,465 L280,466 L281,468 L276,471 L275,473 L276,475 L272,480 L271,479 L270,480 L271,479 L272,481 L270,483 L269,482 L268,483 L269,485 L268,486 L267,485 L264,489 L265,488 L266,490 L262,495 L261,494 L262,496 L257,503 L256,502 L257,503 L256,505 L255,504 L256,506 L253,507 L254,509 L252,511 L252,513 L271,488 L272,489 L271,487 L277,480 L278,481 L277,479 L295,457 L296,458 L298,456 L297,457 L296,455 L311,438 L312,439 L311,438 L313,436 L314,437 L313,436 L314,434 L346,401 L359,389 L360,390 L373,378 L372,377 L379,371 L380,372 L379,371 L381,369 L388,366 L393,359 L396,357 L397,358 L396,357 L398,355 L400,356 L402,354 L401,353 L405,350 L406,351 L405,350 L409,347 L410,348 L411,345 L413,346 L412,345 L418,340 L420,341 L426,336 L425,335 L427,333 L429,334 L428,333 L430,331 L439,327 L440,328 L438,329 L440,331 L440,337 L440,332 L441,331 L442,332 L442,339 L440,349 L439,350 L438,348 L437,351 L438,360 L437,361 L436,358 L435,366 L435,362 L436,361 L437,362 L437,367 L434,380 L433,376 L434,386 L430,409 L428,445 L427,446 L426,445 L427,446 L426,510 L437,507 L444,507 L445,510 L452,511 L450,510 L451,509 L455,509 L466,514 L464,515 L467,514 L472,517 L471,518 L473,517 L479,520 L481,522 L480,523 L481,522 L485,524 L483,525 L485,526 L484,525 L486,524 L492,529 L491,530 L492,531 L491,530 L493,529 L495,531 L494,532 L495,531 L499,534 L498,535 L499,534 L502,536 L500,537 L509,544 L510,543 L519,552 L517,556 L507,547 L518,561 L517,563 L518,564 L519,563 L527,576 L526,578 L527,581 L525,582 L524,586 L527,587 L528,585 L533,590 L534,597 L532,598 L524,594 L518,593 L505,588 L475,583 L449,583 L436,585 L418,590 L406,595 L394,602 L381,612 L371,622 L360,637 L359,636 L360,638 L350,657 L349,654 L350,659 L348,662 L346,660 L345,652 L342,645 L343,643 L344,644 L342,639 L339,638 L340,636 L336,630 L335,631 L321,617 L320,618 L317,615 L294,608 L281,608 L280,609 L266,610 L251,615 L237,622 L226,629 L213,640 L212,639 L200,654 L192,661 L190,667 L176,688 L169,704 L167,699 L169,697 L168,698 L166,696 L169,681 L170,680 L171,682 L172,678 L172,680 L171,681 L170,680 L170,677 L173,669 L174,671 L173,666 L178,652 L179,654 L178,652 L179,647 L182,646 L182,645 L181,647 L180,644 L183,637 L184,638 L183,637 L185,632 L186,633 L187,631 L186,632 L185,630 L191,616 L192,618 L191,615 L197,599 L203,587 L204,589 L203,586 L206,584 L205,581 L215,560 L218,558 L217,556 L227,536 L250,496 L267,470 L270,467 L271,469 L270,466 L283,448 L286,445 L287,446 L288,445 L287,443 L301,426 L302,428 L305,421 L309,417 L310,418 L309,417 L314,411 L315,412 L314,411 L316,409 L317,410 L316,409 L318,407 L319,408 L324,403 L322,402 L330,394 L331,395 L335,390 L334,389 L343,380 L344,381 L348,378 L350,375 L349,374 L357,367 L358,368 L366,361 L365,359 L367,357 L369,358 L368,359 L375,352 L374,351 L381,345 L382,346 L385,341 L387,342 L390,339 L389,338 L397,331 L399,332 L400,331 L399,330 L401,328 L402,329 L401,328 L403,326 L405,327 L408,324 L407,323 L408,322 L410,323 L411,322 L410,321 L413,318 L415,319 L414,318 L422,311 L424,312 L428,309 L427,308 L435,301 L437,302 L436,301 L439,298 L441,299 L443,298 L442,296 L444,294 L446,295 L445,296 L446,295 L445,294 L448,291 L450,292 L449,293 L450,292 L449,291 Z M765,286 L766,285 L767,286 L766,287 Z M630,286 L631,285 L632,286 L631,287 Z M629,285 L630,284 L631,285 L630,286 Z M593,285 L594,284 L598,285 L597,286 Z M720,283 L727,290 L726,291 L728,290 L732,293 L730,294 L731,295 L732,293 L735,299 L743,305 L756,307 L761,306 L757,306 L756,305 L757,304 L763,305 L764,304 L760,298 L754,293 L755,294 L753,295 L750,290 L749,291 L747,290 L748,289 L747,288 L748,289 L746,290 L740,287 L727,287 Z M627,283 L628,282 L631,283 L630,284 Z M597,284 L601,282 L605,283 L602,285 Z M482,283 L483,282 L484,283 L483,284 Z M596,282 L597,281 L601,282 L600,283 Z M651,279 L652,278 L654,279 L653,280 Z M755,278 L756,277 L758,278 L757,279 Z M754,277 L755,276 L756,277 L755,278 Z M752,276 L753,275 L754,276 L753,277 Z M634,276 L635,275 L640,276 L639,277 Z M751,275 L752,274 L753,275 L752,276 Z M639,277 L646,276 L645,275 L647,274 L652,278 L645,279 Z M604,274 L605,273 L609,274 L608,275 Z M639,272 L642,271 L646,274 L644,275 Z M773,271 L774,270 L775,271 L774,272 Z M663,271 L664,270 L665,271 L664,272 Z M970,270 L971,269 L972,270 L971,271 Z M772,270 L773,269 L774,270 L773,271 Z M740,270 L741,269 L742,271 L741,272 Z M971,269 L972,268 L973,269 L972,270 Z M771,269 L772,268 L773,269 L772,270 Z M770,268 L771,267 L772,268 L771,269 Z M572,267 L573,266 L577,267 L626,267 L637,269 L640,271 L638,272 L641,274 L631,276 L630,275 L633,274 L628,273 L630,273 L631,274 L630,275 L623,274 L618,279 L609,276 L608,273 L600,272 L605,273 L598,274 L592,272 L598,271 L599,269 L603,269 L589,270 L592,271 L588,272 Z M769,266 L770,265 L771,266 L770,267 Z M760,266 L761,265 L762,266 L761,267 Z M569,266 L570,265 L572,266 L571,267 Z M768,265 L769,264 L770,265 L769,266 Z M732,265 L733,264 L734,266 L733,267 Z M767,264 L768,263 L769,264 L768,265 Z M731,264 L732,263 L733,264 L732,265 Z M995,263 L996,262 L997,264 L996,265 Z M748,263 L749,262 L750,263 L749,264 Z M747,262 L748,261 L749,262 L748,263 Z M649,262 L650,261 L652,262 L651,263 Z M996,261 L997,260 L998,262 L997,263 Z M764,261 L765,260 L766,261 L765,262 Z M746,261 L747,260 L748,261 L747,262 Z M763,260 L764,259 L765,260 L764,261 Z M583,260 L584,259 L597,259 L598,260 L597,261 L584,261 Z M997,259 L998,258 L999,259 L998,260 Z M762,259 L763,258 L764,259 L763,260 Z M743,259 L744,258 L745,259 L744,260 Z M998,258 L999,257 L1000,258 L999,259 Z M761,258 L762,257 L763,258 L762,259 Z M742,258 L743,257 L744,258 L743,259 Z M702,258 L703,257 L704,259 L703,260 Z M621,259 L620,260 L600,260 L599,259 L600,258 L614,258 L615,257 Z M760,257 L761,256 L762,257 L761,258 Z M740,257 L741,256 L742,257 L741,258 Z M739,256 L740,255 L741,256 L740,257 Z M757,255 L758,254 L759,255 L758,256 Z M738,255 L739,254 L740,255 L739,256 Z M737,254 L738,253 L739,254 L738,255 Z M632,254 L633,253 L635,254 L634,255 Z M987,252 L988,251 L989,252 L988,253 Z M988,251 L989,250 L990,251 L989,252 Z M989,250 L990,249 L991,250 L990,251 Z M990,249 L991,248 L992,249 L991,250 Z M721,249 L722,248 L723,249 L722,250 Z M991,248 L992,247 L993,248 L992,249 Z M614,247 L615,246 L617,247 L616,248 Z M541,247 L542,246 L543,247 L542,248 Z M539,246 L540,245 L541,246 L540,247 Z M609,245 L610,244 L612,245 L611,246 Z M441,245 L442,244 L443,245 L442,246 Z M536,244 L537,243 L538,244 L537,245 Z M454,244 L455,243 L456,244 L455,245 Z M440,244 L441,243 L442,244 L441,245 Z M535,243 L536,242 L537,243 L536,244 Z M439,243 L440,242 L441,243 L440,244 Z M965,242 L966,241 L967,243 L966,244 Z M533,242 L534,241 L535,242 L534,243 Z M438,242 L439,241 L440,242 L439,243 Z M967,241 L968,240 L969,241 L968,242 Z M692,241 L693,240 L694,241 L693,242 Z M678,241 L679,240 L680,241 L679,242 Z M968,240 L969,239 L970,240 L969,241 Z M691,240 L692,239 L693,240 L692,241 Z M969,239 L970,238 L971,239 L970,240 Z M690,239 L691,238 L692,239 L691,240 Z M970,238 L971,237 L972,238 L971,239 Z M670,237 L671,236 L673,237 L672,238 Z M953,236 L954,235 L955,237 L954,238 Z M673,236 L675,235 L679,240 L677,241 L673,238 L674,237 Z M668,236 L669,235 L671,236 L670,237 Z M957,234 L958,235 L957,240 L956,239 Z M672,235 L673,234 L674,235 L673,236 Z M666,235 L667,234 L669,235 L668,236 Z M954,234 L955,233 L956,235 L955,236 Z M671,234 L672,233 L673,234 L672,235 Z M589,234 L590,233 L591,234 L590,235 Z M955,233 L956,232 L957,233 L956,234 Z M657,232 L658,231 L661,232 L660,233 Z M586,232 L587,231 L588,232 L587,233 Z M666,231 L667,230 L668,231 L667,232 Z M584,231 L585,230 L586,231 L585,232 Z M583,230 L584,229 L585,230 L584,231 Z M959,227 L960,230 L958,235 L956,231 Z M959,226 L960,225 L961,227 L960,228 Z M479,226 L480,225 L481,227 L480,228 Z M417,226 L418,225 L419,226 L418,227 Z M416,225 L417,224 L418,225 L417,226 Z M969,224 L970,223 L971,225 L970,226 Z M960,224 L961,223 L962,225 L961,226 Z M672,224 L673,223 L674,224 L673,225 Z M478,224 L479,223 L480,224 L479,225 Z M477,222 L478,221 L479,222 L478,223 Z M667,221 L668,220 L669,221 L668,222 Z M572,221 L573,220 L574,221 L573,222 Z M451,221 L452,220 L453,221 L452,222 Z M569,219 L570,218 L571,219 L570,220 Z M568,218 L569,217 L570,218 L569,219 Z M567,217 L568,216 L569,217 L568,218 Z M566,216 L567,215 L568,216 L567,217 Z M565,215 L566,214 L567,215 L566,216 Z M568,214 L569,213 L571,214 L570,215 Z M564,214 L565,213 L566,214 L565,215 Z M567,213 L568,212 L569,213 L568,214 Z M563,213 L564,212 L565,213 L564,214 Z M472,212 L478,220 L477,222 L476,221 L477,226 L478,225 L480,228 L481,227 L486,238 L486,241 L485,242 L484,241 L484,239 L485,246 L485,242 L486,241 L487,242 L486,250 L486,248 L487,247 L488,248 L488,270 L487,271 L486,270 L486,266 L487,271 L486,279 L485,280 L484,279 L484,276 L485,281 L484,282 L483,281 L481,284 L482,283 L483,285 L481,287 L480,286 L481,287 L479,290 L478,289 L477,293 L474,294 L475,300 L470,313 L469,309 L470,308 L467,316 L468,321 L467,322 L466,321 L467,325 L466,326 L465,323 L464,327 L465,325 L466,326 L466,329 L463,338 L462,335 L463,341 L462,342 L461,339 L460,343 L461,351 L459,357 L457,378 L456,379 L455,378 L455,371 L455,378 L456,379 L455,412 L457,423 L457,430 L456,431 L455,430 L455,424 L456,433 L456,431 L457,430 L458,431 L457,440 L458,435 L461,445 L460,450 L461,448 L462,449 L461,452 L465,462 L466,460 L471,470 L470,471 L471,474 L488,485 L487,486 L489,485 L491,487 L490,488 L492,487 L494,489 L493,490 L495,489 L509,497 L508,498 L511,497 L521,502 L520,503 L523,502 L526,504 L525,505 L526,506 L525,505 L528,504 L543,509 L545,511 L544,512 L547,515 L548,514 L549,515 L548,517 L549,516 L553,526 L546,552 L545,561 L544,562 L542,559 L543,556 L541,558 L530,544 L531,543 L535,547 L528,540 L531,543 L530,544 L519,534 L520,533 L518,534 L514,530 L515,529 L513,527 L514,528 L513,529 L510,527 L511,526 L508,523 L510,525 L509,526 L499,519 L501,518 L494,513 L492,515 L488,512 L489,511 L487,512 L482,509 L481,506 L478,507 L475,505 L477,504 L474,505 L466,501 L467,500 L466,499 L462,500 L459,498 L460,497 L459,496 L453,497 L438,493 L438,485 L436,475 L436,439 L437,438 L437,423 L439,413 L439,404 L446,361 L448,357 L451,338 L453,335 L455,323 L461,302 L461,291 L456,280 L454,278 L450,277 L453,276 L450,277 L443,276 L404,276 L403,277 L385,276 L392,277 L383,279 L369,278 L375,279 L362,282 L357,282 L356,281 L357,280 L359,280 L353,281 L356,281 L357,282 L356,283 L342,285 L337,287 L333,287 L332,286 L333,285 L336,285 L330,286 L332,286 L333,287 L332,288 L316,292 L313,292 L312,291 L313,290 L315,290 L311,291 L313,292 L312,293 L299,297 L296,297 L295,296 L296,295 L298,295 L294,296 L296,297 L295,298 L291,297 L293,298 L271,306 L267,305 L269,306 L266,308 L261,309 L260,308 L262,307 L260,308 L261,309 L258,311 L254,310 L256,311 L225,324 L208,333 L208,334 L221,328 L224,329 L222,328 L225,326 L259,313 L264,314 L262,313 L274,308 L279,309 L277,308 L291,303 L294,303 L295,304 L293,305 L296,304 L294,303 L298,301 L331,293 L360,288 L377,287 L378,286 L392,286 L393,285 L419,286 L427,289 L424,290 L427,293 L422,299 L420,298 L415,303 L416,304 L393,323 L391,322 L392,323 L354,356 L311,399 L310,398 L311,400 L296,417 L295,415 L293,418 L294,419 L287,428 L286,427 L285,428 L286,429 L284,432 L283,430 L284,432 L282,434 L281,433 L282,434 L279,438 L278,437 L279,438 L277,441 L276,439 L273,443 L274,445 L270,450 L269,449 L268,450 L269,452 L266,453 L267,455 L265,457 L264,456 L263,457 L264,456 L265,458 L263,460 L262,459 L261,460 L262,462 L259,466 L258,465 L257,466 L256,471 L253,472 L254,471 L255,473 L253,475 L252,474 L253,476 L250,480 L249,479 L248,480 L249,482 L248,483 L247,482 L248,484 L245,488 L244,486 L245,489 L243,491 L242,490 L241,491 L242,493 L238,500 L237,499 L238,500 L235,505 L234,504 L235,506 L232,508 L233,509 L231,512 L230,511 L231,512 L230,515 L228,517 L227,516 L228,518 L223,527 L222,525 L223,528 L221,531 L220,530 L219,531 L220,532 L218,536 L217,535 L218,537 L214,545 L212,546 L213,547 L212,549 L210,550 L211,551 L189,599 L186,592 L186,588 L187,587 L188,590 L187,583 L189,573 L190,572 L191,574 L192,572 L191,573 L190,572 L190,568 L192,562 L194,546 L195,545 L196,548 L197,545 L195,544 L195,539 L199,515 L199,497 L200,496 L199,472 L196,454 L193,446 L194,442 L193,444 L188,432 L189,430 L188,431 L185,426 L186,425 L185,426 L181,420 L182,418 L181,417 L180,418 L165,402 L151,394 L139,390 L120,390 L119,389 L121,387 L124,388 L121,387 L128,382 L130,383 L136,378 L135,377 L139,374 L140,375 L139,374 L142,372 L143,373 L142,372 L143,371 L145,372 L149,369 L148,368 L154,364 L156,365 L155,366 L156,363 L169,355 L161,358 L134,374 L116,386 L110,392 L101,395 L100,390 L105,385 L107,386 L115,379 L114,378 L122,372 L124,373 L127,370 L130,370 L129,367 L130,366 L132,367 L133,366 L132,365 L136,362 L138,363 L139,360 L141,361 L142,358 L144,357 L145,358 L144,357 L147,355 L148,356 L147,355 L151,352 L153,353 L152,354 L156,351 L155,350 L156,349 L158,350 L160,349 L161,346 L163,345 L165,346 L166,343 L168,344 L167,343 L168,342 L170,343 L169,342 L171,340 L173,341 L172,340 L175,338 L178,339 L176,338 L180,335 L182,336 L181,335 L184,333 L187,334 L188,331 L191,332 L197,329 L198,326 L214,318 L216,318 L217,319 L216,320 L217,317 L219,316 L222,317 L220,316 L225,313 L229,314 L227,313 L230,311 L234,312 L232,311 L237,308 L247,304 L251,305 L249,304 L265,297 L299,286 L304,287 L302,286 L313,282 L357,272 L399,266 L409,266 L410,265 L433,265 L434,264 L452,264 L455,265 L457,261 L471,247 L474,241 L475,242 L474,241 L475,227 L471,214 Z M565,212 L566,211 L568,212 L567,213 Z M470,212 L471,211 L472,212 L471,213 Z M462,212 L463,211 L464,213 L463,214 Z M975,210 L976,209 L977,211 L976,212 Z M469,210 L470,209 L471,210 L470,211 Z M548,209 L549,208 L550,209 L549,210 Z M547,208 L548,207 L549,208 L548,209 Z M570,215 L571,214 L575,217 L574,218 L576,217 L588,224 L599,227 L604,230 L625,235 L643,237 L661,242 L686,255 L688,257 L687,258 L689,257 L698,264 L697,265 L698,266 L697,265 L699,264 L711,274 L711,272 L703,261 L704,258 L701,257 L697,248 L693,243 L694,241 L674,225 L675,224 L673,223 L671,224 L670,223 L671,222 L670,223 L668,220 L666,221 L654,215 L652,213 L653,212 L651,213 L644,208 L648,205 L656,209 L675,216 L672,219 L675,216 L684,218 L706,231 L718,242 L721,246 L720,247 L721,246 L722,247 L721,249 L722,250 L723,249 L725,251 L724,253 L725,252 L731,260 L730,262 L729,261 L732,262 L731,264 L733,267 L734,266 L736,270 L738,271 L736,272 L742,271 L745,274 L744,275 L735,274 L734,276 L742,277 L748,280 L750,282 L749,283 L750,284 L749,283 L751,282 L753,284 L752,285 L754,284 L760,287 L763,290 L762,291 L763,290 L764,291 L765,296 L767,296 L766,288 L767,287 L768,288 L766,285 L765,286 L757,279 L761,278 L761,268 L762,267 L765,270 L764,272 L763,271 L763,277 L765,271 L768,274 L775,288 L775,294 L774,295 L771,294 L771,296 L778,299 L775,300 L780,299 L788,302 L794,299 L801,300 L802,301 L801,302 L796,302 L798,302 L799,303 L798,304 L795,304 L793,302 L795,304 L795,307 L798,310 L797,311 L800,310 L806,313 L806,311 L803,307 L808,304 L810,305 L813,302 L815,304 L819,314 L819,327 L814,336 L812,333 L801,329 L790,328 L792,329 L785,332 L772,332 L771,331 L772,330 L775,330 L770,329 L772,330 L769,331 L757,325 L747,325 L739,328 L728,327 L720,324 L716,325 L716,327 L719,328 L717,329 L719,330 L718,329 L720,328 L722,330 L721,331 L722,332 L724,331 L728,336 L729,339 L728,340 L727,339 L728,341 L729,339 L730,340 L729,344 L730,342 L736,353 L735,355 L736,354 L738,356 L737,358 L738,360 L741,361 L740,363 L743,364 L742,366 L743,365 L745,367 L744,369 L745,368 L752,378 L751,379 L752,378 L759,386 L768,392 L779,395 L777,397 L775,396 L777,397 L769,405 L767,404 L768,403 L763,407 L753,411 L752,410 L755,407 L756,408 L755,407 L758,402 L753,404 L752,403 L751,394 L748,393 L743,384 L734,374 L735,373 L733,374 L721,366 L705,362 L699,358 L700,356 L698,358 L695,355 L702,354 L702,353 L691,349 L689,347 L690,346 L686,343 L687,341 L683,341 L687,344 L685,345 L678,340 L679,339 L693,340 L683,333 L685,332 L682,333 L677,331 L664,321 L666,320 L668,322 L666,319 L667,318 L683,318 L684,317 L690,318 L690,316 L686,316 L673,312 L670,310 L672,309 L667,307 L669,308 L666,309 L663,307 L664,306 L662,305 L664,306 L661,307 L648,301 L650,300 L646,298 L644,299 L634,291 L635,290 L632,289 L634,285 L630,284 L635,283 L654,288 L692,293 L691,291 L688,290 L690,289 L688,288 L684,289 L683,288 L685,287 L682,286 L684,287 L683,288 L677,286 L674,281 L664,272 L665,271 L663,269 L664,270 L662,271 L653,264 L654,263 L652,264 L651,261 L649,260 L650,261 L648,262 L639,257 L641,256 L638,257 L634,253 L630,254 L629,253 L631,252 L628,251 L630,252 L627,253 L616,248 L618,247 L616,246 L613,247 L612,244 L608,245 L605,243 L606,242 L604,243 L599,240 L601,239 L598,240 L595,238 L597,237 L595,238 L590,235 L591,234 L590,233 L588,234 L587,233 L588,232 L585,229 L582,230 L573,222 L574,221 L570,217 Z M557,206 L559,205 L566,211 L563,213 Z M556,205 L557,204 L558,205 L557,206 Z M555,204 L556,203 L557,204 L556,205 Z M639,204 L642,202 L647,205 L643,208 Z M554,203 L555,202 L556,203 L555,204 Z M553,202 L554,201 L555,202 L554,203 Z M552,201 L553,200 L554,201 L553,202 Z M633,199 L635,198 L641,202 L639,204 Z M632,198 L633,197 L634,198 L633,199 Z M454,198 L455,197 L456,199 L455,200 Z M631,197 L632,196 L633,197 L632,198 Z M560,197 L561,196 L562,197 L561,198 Z M453,197 L454,196 L455,197 L454,198 Z M630,196 L631,195 L632,196 L631,197 Z M452,196 L453,195 L454,196 L453,197 Z M451,194 L452,193 L453,194 L452,195 Z M1054,188 L1055,187 L1056,188 L1055,189 Z M1078,186 L1079,185 L1080,186 L1079,187 Z M542,179 L543,178 L544,179 L543,180 Z M541,178 L542,177 L543,178 L542,179 Z M1071,177 L1072,176 L1073,177 L1072,178 Z M1092,164 L1093,163 L1095,164 L1094,165 Z M319,164 L320,163 L322,164 L321,165 Z M199,160 L200,159 L201,160 L200,161 Z M1150,152 L1151,151 L1152,152 L1151,153 Z M175,148 L176,147 L177,148 L176,149 Z M174,147 L175,146 L176,147 L175,148 Z M1136,143 L1137,142 L1139,143 L1138,144 Z M1138,142 L1139,141 L1142,142 L1141,143 Z M184,142 L185,141 L186,142 L185,143 Z M183,141 L184,140 L185,141 L184,142 Z M182,140 L183,139 L184,140 L183,141 Z M160,137 L161,136 L162,137 L161,138 Z M1165,136 L1166,135 L1167,136 L1166,137 Z M1166,135 L1167,134 L1169,135 L1168,136 Z M1166,133 L1167,132 L1171,133 L1169,135 Z M191,133 L192,132 L199,133 L198,134 Z M1170,132 L1171,131 L1173,132 L1172,133 Z M166,130 L167,129 L184,130 L192,132 L185,133 L192,134 L206,133 L218,135 L219,136 L218,137 L215,137 L222,138 L218,137 L223,136 L234,139 L230,140 L234,139 L243,140 L244,141 L243,142 L240,142 L246,143 L243,142 L247,141 L257,144 L253,145 L260,144 L276,149 L272,150 L279,149 L283,151 L281,152 L283,153 L282,152 L283,151 L286,151 L299,156 L297,157 L299,156 L304,157 L305,160 L306,160 L304,159 L307,158 L314,161 L312,162 L314,161 L319,162 L320,163 L318,164 L319,165 L324,164 L327,166 L325,167 L327,166 L332,167 L340,171 L338,172 L340,171 L345,173 L343,174 L345,175 L344,174 L346,173 L351,176 L349,177 L353,176 L388,194 L390,196 L389,197 L391,196 L400,201 L422,216 L425,219 L424,220 L425,219 L438,228 L446,235 L445,236 L446,235 L448,237 L447,238 L448,237 L455,243 L454,244 L455,245 L456,244 L464,252 L456,261 L442,246 L443,245 L439,241 L437,242 L422,230 L417,224 L416,225 L399,213 L368,195 L343,183 L311,170 L300,167 L302,169 L328,179 L341,186 L340,187 L342,186 L352,191 L382,209 L406,227 L412,233 L411,234 L412,233 L414,235 L413,236 L415,235 L426,246 L427,251 L426,252 L424,251 L426,252 L418,255 L411,255 L410,254 L412,253 L405,254 L410,254 L411,255 L410,256 L394,257 L377,260 L372,260 L371,259 L372,258 L367,259 L371,259 L372,260 L371,261 L364,262 L354,261 L359,262 L348,265 L344,265 L343,264 L346,263 L340,264 L343,264 L344,265 L343,266 L338,267 L331,266 L334,267 L325,270 L322,270 L321,269 L324,268 L319,269 L321,269 L322,270 L317,272 L311,271 L314,272 L306,275 L303,275 L302,274 L303,273 L305,273 L301,274 L303,275 L302,276 L287,280 L286,279 L288,278 L286,279 L287,280 L283,282 L281,282 L280,281 L282,280 L278,281 L280,281 L281,282 L268,287 L266,287 L265,286 L267,285 L265,285 L264,286 L266,287 L257,291 L252,290 L251,291 L252,292 L249,294 L245,293 L247,294 L244,296 L240,295 L238,296 L240,297 L236,299 L233,298 L235,299 L232,301 L228,300 L230,301 L225,304 L221,303 L223,304 L216,308 L212,309 L211,308 L212,307 L211,310 L209,309 L210,310 L209,311 L206,310 L205,313 L202,312 L204,313 L189,321 L186,320 L187,321 L186,322 L184,321 L185,322 L184,323 L182,322 L183,323 L181,325 L163,334 L162,333 L163,332 L162,333 L160,332 L162,330 L161,328 L163,326 L165,327 L164,325 L166,323 L167,324 L166,323 L168,321 L169,322 L176,314 L175,313 L178,309 L179,310 L180,309 L179,308 L186,299 L187,300 L189,297 L188,295 L191,294 L190,292 L195,285 L203,269 L204,270 L203,268 L208,257 L212,243 L215,224 L215,206 L213,194 L208,177 L200,162 L201,160 L198,159 L182,138 L183,139 L181,140 L170,132 L172,131 L169,132 Z M139,129 L140,128 L144,129 L143,130 Z M112,121 L113,122 L110,124 L110,126 L126,125 L139,127 L140,128 L139,129 L136,129 L140,130 L146,129 L152,132 L150,133 L154,132 L157,134 L155,135 L157,136 L156,135 L158,134 L161,136 L159,137 L160,138 L163,137 L175,146 L174,147 L176,149 L177,148 L185,156 L191,165 L190,167 L193,169 L196,174 L203,194 L205,206 L205,228 L201,247 L193,268 L184,285 L170,305 L159,318 L129,347 L127,348 L126,347 L127,348 L125,350 L124,349 L125,350 L107,366 L105,367 L104,366 L105,367 L103,369 L102,368 L101,369 L102,370 L97,375 L96,374 L97,375 L95,377 L94,376 L95,377 L93,379 L92,378 L89,381 L91,379 L92,380 L83,391 L82,390 L83,392 L81,394 L80,393 L79,394 L80,396 L76,401 L75,400 L74,401 L75,404 L73,406 L72,405 L73,407 L72,408 L71,407 L72,409 L71,410 L70,409 L71,410 L70,413 L67,414 L68,418 L66,421 L65,419 L66,421 L65,426 L64,427 L63,425 L62,429 L62,427 L63,426 L64,427 L62,438 L63,442 L68,434 L71,431 L72,432 L71,430 L73,428 L74,429 L73,428 L83,417 L87,414 L88,415 L87,414 L97,407 L99,406 L102,407 L101,406 L113,401 L123,402 L119,401 L120,400 L134,400 L135,401 L132,402 L138,401 L151,406 L153,409 L154,408 L158,411 L157,412 L158,411 L167,419 L178,435 L186,457 L190,479 L190,498 L191,499 L188,535 L184,555 L184,561 L179,581 L179,586 L176,595 L175,604 L172,613 L171,622 L157,681 L151,719 L151,730 L150,731 L151,768 L154,782 L160,796 L163,797 L161,787 L161,767 L162,766 L162,758 L163,757 L164,758 L164,761 L165,759 L165,754 L165,757 L164,758 L163,757 L164,747 L167,736 L168,735 L169,737 L170,734 L169,736 L168,735 L168,732 L171,725 L172,727 L171,723 L173,719 L174,720 L173,717 L178,707 L179,708 L178,705 L181,700 L182,702 L181,699 L183,696 L184,697 L183,695 L191,681 L193,679 L194,680 L193,678 L200,669 L201,670 L200,669 L205,662 L223,644 L238,633 L262,622 L284,618 L298,619 L306,621 L310,623 L311,625 L312,624 L313,626 L318,627 L329,637 L328,639 L327,638 L329,640 L330,639 L331,640 L330,642 L333,643 L332,645 L333,646 L334,645 L337,650 L342,668 L343,689 L345,697 L346,697 L348,688 L349,694 L348,688 L349,684 L350,687 L349,680 L352,673 L353,674 L352,673 L353,670 L354,672 L353,668 L354,667 L355,669 L356,666 L355,668 L354,665 L357,660 L358,661 L357,658 L360,654 L361,655 L360,653 L366,643 L369,642 L368,640 L379,628 L381,628 L380,627 L382,625 L383,626 L382,625 L393,615 L395,616 L394,615 L401,610 L403,611 L402,610 L406,607 L425,599 L428,600 L426,601 L430,600 L428,600 L427,599 L428,598 L441,595 L452,596 L447,596 L446,595 L447,594 L476,593 L477,594 L475,595 L478,596 L487,596 L489,597 L487,596 L488,595 L499,596 L511,599 L512,600 L510,601 L514,600 L515,601 L514,602 L517,603 L522,602 L532,606 L533,609 L542,613 L544,612 L548,614 L550,619 L551,639 L550,640 L549,639 L550,640 L539,652 L538,651 L539,652 L534,655 L535,656 L528,664 L526,663 L522,669 L519,671 L517,670 L515,671 L517,672 L514,674 L511,673 L510,676 L507,675 L505,676 L507,677 L503,679 L496,686 L493,692 L492,691 L489,696 L490,699 L488,702 L487,701 L486,702 L487,701 L488,703 L486,705 L485,704 L486,705 L485,708 L483,710 L482,709 L481,710 L482,709 L483,710 L481,713 L480,712 L481,714 L479,716 L478,715 L471,722 L472,723 L471,724 L469,723 L465,725 L467,726 L463,728 L457,728 L454,726 L448,725 L442,728 L440,727 L438,729 L439,730 L436,735 L435,733 L434,734 L436,735 L431,738 L427,743 L422,756 L421,754 L423,772 L427,781 L432,787 L436,790 L438,789 L437,788 L437,780 L438,779 L437,778 L437,770 L438,767 L443,761 L448,762 L449,763 L446,764 L449,766 L449,768 L448,769 L447,767 L445,774 L445,780 L446,773 L447,774 L447,785 L449,792 L447,793 L450,794 L451,800 L455,803 L454,804 L455,803 L466,811 L465,812 L466,811 L479,812 L473,805 L474,803 L473,804 L470,800 L468,791 L469,784 L470,783 L471,784 L471,787 L473,785 L471,784 L479,780 L483,776 L485,772 L486,764 L489,761 L490,762 L494,756 L496,757 L495,756 L497,754 L499,755 L498,757 L501,758 L502,757 L509,762 L509,770 L508,771 L507,769 L506,772 L507,775 L505,778 L504,777 L505,779 L503,782 L507,782 L513,779 L520,773 L524,767 L525,768 L524,765 L526,762 L527,764 L526,762 L527,740 L524,735 L525,733 L524,734 L522,731 L524,726 L525,728 L526,726 L525,723 L528,722 L527,723 L526,721 L529,718 L530,719 L529,718 L531,716 L533,717 L532,715 L540,710 L569,704 L582,698 L585,699 L584,698 L586,696 L588,697 L587,696 L589,694 L595,691 L602,682 L608,677 L626,686 L631,687 L649,695 L646,697 L647,699 L640,708 L639,713 L638,714 L637,713 L638,715 L636,726 L635,727 L634,726 L635,731 L629,746 L622,755 L621,754 L620,755 L621,756 L615,760 L611,760 L605,764 L602,769 L602,772 L597,779 L595,791 L598,804 L605,814 L609,817 L608,818 L609,817 L616,820 L614,814 L615,811 L614,812 L613,811 L613,800 L617,794 L620,794 L622,792 L623,799 L626,803 L624,804 L624,806 L625,805 L626,806 L627,814 L631,823 L639,831 L646,835 L658,836 L659,834 L653,829 L647,817 L647,809 L652,805 L655,800 L654,788 L657,783 L659,785 L658,788 L660,788 L667,797 L673,799 L670,800 L675,799 L679,803 L678,815 L678,807 L679,806 L680,807 L680,817 L687,811 L691,801 L691,791 L688,784 L688,778 L680,770 L678,764 L681,757 L679,737 L683,728 L687,724 L693,721 L697,722 L708,728 L707,729 L709,728 L720,735 L721,739 L720,740 L719,739 L721,744 L722,742 L725,749 L729,770 L736,792 L746,810 L752,816 L760,821 L759,822 L762,821 L763,822 L762,823 L764,824 L769,823 L783,826 L797,826 L803,828 L801,829 L803,828 L805,829 L813,838 L821,854 L826,874 L825,886 L828,892 L841,907 L852,912 L856,912 L856,910 L849,904 L850,902 L862,911 L861,912 L875,910 L875,908 L871,905 L872,904 L871,905 L869,903 L870,902 L869,903 L866,899 L868,894 L868,889 L864,881 L865,880 L870,881 L873,884 L874,890 L875,890 L878,885 L878,875 L875,868 L876,867 L875,868 L873,863 L866,855 L867,854 L864,852 L862,853 L860,852 L850,841 L847,833 L844,816 L846,815 L847,817 L849,816 L868,823 L880,838 L879,840 L881,843 L882,842 L891,863 L892,867 L891,877 L891,873 L892,872 L893,873 L892,880 L893,886 L892,891 L893,904 L892,905 L893,904 L894,905 L893,907 L894,906 L899,912 L899,915 L902,920 L901,922 L903,924 L904,923 L910,929 L918,933 L926,934 L926,932 L917,923 L916,920 L917,913 L929,926 L938,931 L936,932 L951,930 L951,928 L945,924 L946,923 L942,918 L941,919 L940,918 L941,916 L940,917 L938,914 L940,904 L937,899 L939,898 L942,900 L944,899 L948,900 L952,905 L951,910 L952,907 L953,912 L955,912 L957,909 L958,910 L960,907 L959,905 L959,893 L957,887 L954,884 L954,880 L950,874 L951,873 L949,871 L947,872 L946,871 L947,870 L943,871 L934,868 L940,875 L945,877 L944,879 L943,878 L944,879 L945,878 L947,880 L946,882 L945,881 L946,882 L944,883 L942,887 L941,894 L938,893 L932,885 L931,886 L928,885 L927,889 L928,887 L929,888 L929,896 L930,897 L929,899 L930,898 L934,903 L934,907 L933,908 L930,907 L935,919 L934,921 L932,919 L931,920 L924,913 L919,904 L918,906 L917,905 L913,891 L912,891 L910,905 L905,901 L901,901 L899,899 L898,896 L900,889 L899,868 L893,847 L884,828 L885,826 L884,823 L877,817 L854,807 L843,804 L823,792 L806,773 L807,771 L804,770 L801,765 L802,764 L801,765 L795,755 L788,739 L788,737 L789,736 L790,738 L789,735 L788,737 L786,733 L787,729 L786,731 L784,727 L781,715 L782,710 L783,714 L782,707 L782,710 L781,711 L780,710 L779,696 L778,695 L778,677 L780,669 L778,670 L776,675 L772,702 L773,718 L776,730 L773,735 L771,736 L770,735 L771,734 L770,735 L771,736 L767,740 L770,742 L764,745 L755,740 L756,739 L754,740 L753,737 L751,736 L748,737 L747,736 L748,735 L746,736 L745,735 L746,734 L744,735 L732,729 L730,727 L731,726 L730,727 L728,726 L729,725 L728,724 L725,725 L724,724 L725,720 L722,723 L718,721 L726,717 L728,718 L727,719 L728,716 L730,717 L737,710 L736,708 L737,707 L738,708 L737,706 L742,698 L745,690 L746,692 L745,687 L748,676 L750,662 L751,661 L752,662 L751,661 L752,657 L753,660 L752,646 L750,642 L751,637 L750,634 L750,636 L749,637 L748,636 L744,623 L745,621 L744,622 L736,606 L735,606 L737,614 L739,630 L743,643 L742,645 L743,644 L744,645 L743,647 L744,646 L745,647 L745,654 L739,667 L737,669 L736,668 L737,670 L736,671 L735,670 L736,672 L733,676 L732,675 L733,676 L726,685 L725,684 L718,691 L719,692 L714,696 L713,695 L714,696 L712,698 L710,697 L709,698 L710,699 L706,702 L704,701 L701,703 L702,704 L699,706 L698,705 L699,706 L698,707 L696,706 L695,709 L693,708 L690,710 L691,711 L683,717 L680,715 L676,723 L675,721 L676,725 L674,727 L673,726 L672,728 L673,732 L672,733 L671,731 L670,734 L671,732 L672,733 L672,745 L671,746 L672,752 L670,755 L669,761 L670,758 L673,770 L681,779 L680,782 L679,780 L680,783 L679,785 L681,788 L682,786 L684,789 L685,803 L684,804 L681,797 L673,790 L669,791 L665,788 L661,779 L656,772 L655,777 L648,787 L646,798 L647,797 L648,798 L647,801 L645,802 L643,798 L640,796 L641,798 L641,816 L644,824 L642,826 L639,823 L641,822 L639,823 L637,821 L632,812 L631,808 L632,793 L629,795 L628,794 L628,787 L633,778 L634,772 L630,775 L629,774 L630,775 L619,785 L617,782 L613,785 L607,797 L608,807 L607,808 L604,803 L605,799 L604,801 L602,798 L603,791 L602,794 L601,789 L605,779 L606,780 L605,778 L607,776 L609,777 L607,776 L611,772 L610,768 L612,766 L622,764 L627,760 L628,761 L627,760 L634,751 L638,743 L648,709 L652,705 L653,706 L652,705 L665,690 L671,680 L680,659 L694,643 L682,649 L670,636 L664,627 L659,617 L654,600 L655,576 L652,583 L652,586 L651,587 L650,586 L651,588 L650,594 L649,589 L651,612 L650,613 L649,612 L649,608 L650,615 L643,622 L634,628 L633,627 L630,630 L617,635 L610,635 L609,636 L599,635 L593,633 L591,631 L587,620 L587,617 L588,616 L589,617 L589,619 L587,607 L587,610 L586,611 L585,610 L585,589 L586,588 L587,589 L586,588 L587,577 L588,576 L591,578 L589,579 L589,581 L595,579 L596,580 L594,581 L596,580 L600,581 L597,582 L613,581 L614,580 L618,580 L619,581 L618,582 L624,580 L622,579 L623,578 L627,579 L626,578 L631,575 L634,576 L633,575 L634,574 L636,575 L639,573 L638,572 L639,571 L641,572 L640,571 L651,563 L659,555 L671,536 L671,533 L665,543 L659,550 L658,549 L659,550 L657,552 L656,551 L654,553 L655,554 L643,564 L628,572 L621,574 L616,573 L618,574 L613,576 L601,576 L593,573 L591,567 L592,562 L591,566 L590,561 L592,555 L592,547 L596,528 L597,531 L596,518 L597,517 L600,519 L598,520 L598,524 L600,519 L605,521 L603,522 L605,521 L620,521 L630,518 L635,515 L638,516 L636,515 L645,509 L652,502 L662,487 L662,484 L657,492 L654,495 L653,494 L654,496 L650,500 L648,499 L649,500 L647,502 L646,501 L645,502 L646,503 L640,508 L636,510 L634,509 L635,510 L634,511 L632,510 L633,511 L632,512 L629,511 L631,512 L625,515 L622,515 L621,514 L622,513 L624,513 L620,514 L622,515 L621,516 L616,517 L604,516 L603,515 L604,514 L607,514 L604,513 L602,515 L597,512 L598,510 L599,511 L600,510 L599,509 L599,495 L599,502 L598,503 L597,502 L598,463 L599,462 L600,463 L600,470 L602,465 L612,468 L626,467 L632,465 L640,460 L649,450 L655,463 L654,465 L653,464 L656,470 L657,468 L659,471 L658,473 L659,472 L664,479 L663,481 L664,480 L668,485 L667,488 L671,492 L673,496 L674,495 L679,502 L678,504 L680,508 L683,509 L682,512 L683,513 L684,512 L686,515 L685,519 L686,517 L688,520 L689,524 L688,525 L687,524 L688,528 L691,529 L690,536 L691,532 L693,537 L693,542 L695,541 L696,535 L696,519 L693,508 L694,507 L716,511 L711,514 L709,514 L708,513 L709,512 L705,515 L706,516 L704,518 L703,517 L698,521 L699,524 L701,524 L703,522 L704,523 L703,522 L708,518 L719,514 L723,511 L737,512 L733,511 L739,509 L757,507 L780,501 L803,493 L849,473 L849,471 L845,473 L841,472 L863,451 L880,430 L899,400 L914,368 L915,369 L914,366 L924,339 L929,320 L936,282 L945,253 L953,237 L954,238 L955,244 L955,240 L956,239 L957,240 L957,256 L965,275 L963,265 L966,262 L967,263 L966,262 L968,260 L970,261 L968,260 L1004,226 L1037,200 L1038,201 L1037,200 L1054,188 L1055,189 L1057,186 L1058,187 L1057,186 L1068,178 L1070,179 L1069,178 L1070,177 L1072,178 L1073,175 L1075,176 L1074,175 L1084,168 L1088,166 L1090,167 L1089,166 L1092,164 L1094,165 L1095,162 L1097,161 L1099,162 L1098,161 L1100,159 L1112,153 L1114,154 L1113,153 L1116,151 L1119,152 L1117,151 L1134,143 L1137,144 L1143,142 L1141,141 L1142,140 L1145,141 L1144,140 L1153,136 L1156,136 L1163,133 L1167,134 L1163,136 L1166,137 L1159,144 L1153,147 L1155,148 L1152,152 L1151,151 L1150,152 L1151,154 L1141,168 L1130,191 L1129,189 L1130,193 L1123,215 L1122,212 L1123,220 L1120,237 L1122,268 L1128,289 L1127,293 L1128,292 L1134,306 L1135,309 L1134,312 L1135,310 L1143,326 L1142,328 L1143,327 L1144,328 L1141,333 L1122,317 L1123,316 L1122,315 L1123,316 L1121,317 L1118,314 L1119,313 L1117,314 L1102,303 L1073,287 L1074,286 L1072,287 L1071,286 L1072,285 L1069,286 L1066,284 L1068,283 L1065,284 L1061,282 L1063,281 L1061,282 L1057,281 L1054,279 L1056,278 L1051,279 L1048,277 L1050,276 L1045,277 L1021,270 L1024,269 L1016,270 L1010,268 L1014,267 L1006,268 L996,265 L999,264 L997,263 L1000,258 L999,256 L1031,223 L1058,200 L1077,186 L1079,187 L1080,186 L1079,185 L1081,183 L1105,168 L1104,167 L1078,182 L1051,200 L1016,227 L1005,237 L1004,236 L1005,237 L993,248 L992,247 L989,250 L986,248 L988,250 L987,252 L988,253 L973,269 L972,268 L969,271 L970,270 L971,272 L968,276 L1003,277 L1034,283 L1041,286 L1040,287 L1044,286 L1063,293 L1078,301 L1077,302 L1079,301 L1091,308 L1090,309 L1092,308 L1096,311 L1094,312 L1097,311 L1111,321 L1110,322 L1111,323 L1113,322 L1114,323 L1113,324 L1114,323 L1118,326 L1117,327 L1118,326 L1128,334 L1127,335 L1131,339 L1133,338 L1138,343 L1137,344 L1144,351 L1145,350 L1147,352 L1146,353 L1147,352 L1150,355 L1149,356 L1150,355 L1157,363 L1156,364 L1157,363 L1163,370 L1162,371 L1165,372 L1164,374 L1169,377 L1177,389 L1176,391 L1178,395 L1177,397 L1171,393 L1160,378 L1161,377 L1163,379 L1159,375 L1158,376 L1140,357 L1138,357 L1157,378 L1156,380 L1157,382 L1160,384 L1161,383 L1166,388 L1169,394 L1166,395 L1150,390 L1145,390 L1130,394 L1117,402 L1107,412 L1101,421 L1100,420 L1101,422 L1098,426 L1097,425 L1098,427 L1091,441 L1090,439 L1091,443 L1087,452 L1079,491 L1078,488 L1079,500 L1078,501 L1078,516 L1076,523 L1075,517 L1075,525 L1076,523 L1077,524 L1077,536 L1076,537 L1071,518 L1070,509 L1063,487 L1061,476 L1059,473 L1056,461 L1042,422 L1023,380 L1007,351 L1008,349 L1007,350 L1004,346 L1005,344 L1004,345 L1000,339 L1001,337 L1000,338 L997,334 L998,332 L997,333 L990,322 L991,320 L990,318 L987,317 L988,315 L987,316 L985,314 L982,306 L983,305 L984,307 L984,303 L986,302 L984,301 L985,300 L1001,297 L1027,299 L1048,304 L1058,308 L1056,309 L1058,308 L1063,309 L1094,324 L1095,327 L1094,326 L1096,325 L1100,328 L1099,329 L1101,328 L1103,330 L1102,331 L1104,330 L1108,333 L1107,334 L1109,333 L1114,337 L1113,338 L1114,339 L1113,338 L1115,337 L1118,340 L1117,341 L1119,340 L1131,350 L1132,349 L1107,328 L1087,315 L1063,303 L1064,302 L1062,303 L1056,300 L1036,294 L1035,293 L1037,292 L1031,293 L1016,289 L1000,288 L999,287 L983,287 L982,286 L983,285 L1006,286 L1001,285 L980,285 L976,286 L981,286 L982,287 L981,288 L972,288 L965,290 L962,293 L961,292 L962,294 L961,295 L960,294 L961,295 L954,303 L953,302 L952,303 L953,304 L950,309 L946,321 L945,318 L946,324 L935,359 L934,360 L933,358 L934,360 L933,366 L921,402 L919,405 L918,403 L919,407 L917,411 L916,409 L917,411 L916,416 L914,419 L913,417 L914,421 L909,432 L908,430 L909,432 L908,437 L907,438 L906,436 L907,438 L905,443 L904,441 L903,443 L904,442 L905,443 L904,447 L902,450 L901,448 L902,451 L900,454 L899,453 L900,456 L897,461 L896,459 L897,463 L895,466 L894,465 L895,467 L893,470 L892,469 L893,471 L892,472 L891,471 L892,473 L887,482 L886,481 L879,489 L880,490 L874,494 L870,495 L864,494 L867,495 L856,499 L851,498 L853,499 L852,500 L847,499 L845,500 L847,501 L840,504 L836,505 L831,504 L834,505 L818,511 L815,510 L816,511 L815,512 L811,511 L813,512 L802,517 L798,516 L800,517 L797,519 L790,521 L778,527 L775,526 L776,527 L753,539 L750,538 L752,539 L743,544 L741,543 L742,544 L735,551 L734,550 L735,552 L727,564 L727,566 L731,571 L730,573 L729,572 L730,573 L731,572 L744,586 L743,587 L750,592 L751,591 L765,600 L766,601 L764,602 L767,604 L770,603 L771,606 L774,605 L776,607 L775,608 L776,607 L779,608 L797,620 L796,621 L798,620 L830,644 L841,655 L836,658 L831,653 L827,651 L843,670 L851,687 L850,691 L851,689 L853,693 L857,710 L857,718 L858,719 L857,738 L858,734 L859,735 L859,747 L861,755 L862,771 L864,770 L865,767 L872,777 L871,778 L876,784 L877,783 L888,795 L887,796 L888,797 L889,796 L893,799 L896,803 L897,802 L892,794 L893,793 L901,796 L904,799 L903,800 L906,801 L905,804 L908,805 L912,820 L911,826 L912,824 L918,843 L926,858 L927,858 L920,827 L920,819 L921,818 L924,820 L922,821 L922,823 L924,820 L939,833 L939,835 L941,836 L940,837 L941,836 L951,846 L968,871 L974,884 L980,903 L982,917 L982,928 L977,955 L964,980 L953,992 L938,1002 L918,1010 L904,1013 L904,1014 L923,1015 L924,1016 L917,1020 L907,1022 L901,1025 L882,1026 L864,1023 L844,1015 L841,1015 L848,1022 L846,1023 L848,1022 L853,1026 L849,1027 L845,1025 L840,1025 L831,1022 L815,1014 L800,1003 L784,989 L790,1002 L788,1003 L770,991 L739,958 L735,956 L740,968 L738,970 L727,962 L720,955 L721,954 L720,953 L719,954 L700,935 L688,927 L685,927 L687,930 L686,931 L687,930 L691,935 L690,937 L691,936 L692,938 L690,940 L685,938 L687,939 L684,940 L668,930 L665,927 L666,926 L664,927 L657,922 L658,921 L656,922 L645,916 L646,915 L643,916 L642,915 L643,914 L639,915 L633,913 L633,915 L646,926 L648,929 L647,930 L630,928 L629,927 L631,926 L627,925 L629,926 L628,927 L623,926 L622,925 L624,924 L621,923 L623,924 L620,925 L613,922 L615,921 L611,922 L604,919 L587,915 L578,915 L577,914 L558,915 L557,916 L550,915 L553,916 L552,917 L547,916 L549,917 L538,921 L528,926 L523,930 L521,929 L522,930 L520,932 L518,931 L519,930 L516,933 L517,934 L511,940 L513,941 L522,939 L532,939 L542,941 L545,943 L544,944 L547,947 L543,951 L527,959 L511,964 L492,968 L467,979 L457,986 L444,999 L437,1009 L432,1019 L431,1024 L433,1024 L442,1017 L444,1018 L443,1017 L448,1014 L450,1015 L449,1014 L458,1010 L472,1008 L477,1009 L478,1011 L475,1016 L474,1014 L475,1016 L473,1019 L472,1018 L473,1019 L452,1044 L441,1061 L440,1060 L441,1062 L434,1075 L427,1098 L426,1112 L425,1113 L426,1133 L427,1137 L428,1137 L432,1124 L440,1109 L452,1094 L461,1086 L475,1078 L487,1074 L491,1074 L495,1076 L495,1079 L494,1080 L493,1078 L492,1080 L493,1082 L491,1085 L503,1083 L519,1076 L535,1065 L546,1054 L558,1037 L559,1038 L558,1036 L563,1028 L564,1029 L566,1026 L569,1030 L571,1037 L571,1052 L569,1061 L571,1061 L581,1049 L586,1039 L590,1026 L594,1003 L604,982 L613,972 L614,973 L615,971 L616,972 L617,971 L616,970 L618,968 L627,963 L632,964 L634,963 L633,962 L637,960 L658,961 L668,965 L665,966 L668,967 L672,966 L688,974 L699,981 L700,984 L702,983 L718,995 L717,996 L718,995 L720,997 L719,998 L721,997 L733,1007 L732,1008 L733,1007 L742,1014 L741,1015 L742,1016 L744,1015 L752,1022 L751,1023 L753,1022 L782,1043 L817,1061 L848,1071 L876,1075 L895,1075 L922,1071 L936,1067 L955,1059 L982,1041 L1003,1019 L1015,1001 L1022,987 L1030,963 L1030,959 L1032,954 L1033,936 L1035,934 L1037,938 L1037,943 L1035,944 L1036,949 L1037,947 L1038,948 L1039,954 L1042,945 L1043,938 L1042,913 L1039,897 L1031,874 L1034,870 L1043,879 L1042,872 L1038,861 L1031,848 L1018,831 L1019,830 L1018,828 L1015,827 L1010,818 L1013,817 L1014,818 L1013,820 L1015,818 L1025,824 L1026,823 L1014,807 L990,786 L991,785 L990,786 L988,785 L982,778 L983,777 L982,778 L980,776 L987,774 L993,777 L992,778 L993,777 L998,779 L999,778 L987,766 L968,753 L952,744 L948,738 L945,736 L944,737 L936,730 L941,729 L956,732 L960,734 L960,732 L943,720 L923,710 L924,709 L922,710 L921,709 L922,708 L920,709 L919,708 L920,707 L918,708 L915,706 L916,705 L914,706 L909,703 L910,702 L908,703 L905,698 L903,699 L898,694 L901,692 L897,693 L894,691 L895,690 L908,690 L918,693 L919,692 L916,689 L907,684 L905,682 L906,681 L905,682 L903,681 L904,680 L902,681 L901,678 L898,679 L885,673 L884,672 L885,671 L883,672 L882,671 L883,670 L869,663 L868,664 L865,663 L857,656 L858,655 L857,656 L855,654 L856,653 L854,651 L854,649 L851,648 L852,647 L860,647 L875,650 L872,646 L858,638 L856,635 L855,636 L834,627 L819,623 L803,611 L779,597 L777,595 L778,594 L776,595 L772,593 L769,590 L768,585 L769,577 L772,571 L773,573 L772,571 L773,569 L774,570 L773,568 L774,567 L775,568 L777,565 L776,566 L775,564 L779,559 L780,560 L789,551 L788,550 L793,546 L794,547 L795,546 L794,545 L795,544 L797,545 L798,544 L797,543 L802,539 L804,540 L805,537 L807,538 L806,537 L810,534 L812,535 L811,534 L813,532 L826,525 L807,533 L804,532 L807,530 L804,530 L803,529 L808,526 L811,527 L809,528 L813,528 L810,526 L814,524 L816,526 L818,526 L816,524 L821,521 L860,509 L866,510 L863,509 L874,506 L887,507 L909,458 L932,397 L939,375 L941,372 L942,374 L941,370 L946,356 L948,353 L949,354 L948,353 L949,348 L951,345 L952,347 L951,343 L953,340 L954,341 L953,338 L956,334 L957,335 L959,333 L961,333 L963,335 L962,336 L963,335 L969,340 L968,342 L967,341 L970,344 L971,343 L980,354 L979,356 L980,355 L983,358 L990,369 L989,371 L990,370 L997,380 L1020,425 L1036,463 L1054,518 L1054,523 L1057,532 L1063,565 L1064,579 L1066,587 L1066,596 L1065,597 L1050,582 L1051,581 L1050,582 L1046,579 L1047,578 L1045,579 L1041,576 L1023,569 L995,566 L994,567 L984,567 L967,571 L953,576 L939,583 L927,591 L910,607 L902,618 L901,617 L902,619 L896,629 L895,628 L896,630 L895,631 L894,630 L895,633 L891,645 L891,654 L893,654 L896,641 L904,626 L909,620 L910,621 L909,620 L910,618 L926,602 L929,600 L930,601 L929,600 L941,592 L943,593 L942,592 L944,590 L952,586 L969,580 L974,581 L972,580 L976,578 L988,576 L1008,576 L1009,577 L1008,578 L1004,578 L1014,579 L1010,579 L1009,578 L1010,577 L1020,578 L1032,583 L1031,584 L1034,583 L1037,585 L1035,586 L1038,585 L1040,587 L1039,588 L1041,587 L1042,590 L1047,591 L1059,603 L1062,608 L1061,609 L1062,611 L1063,610 L1068,619 L1072,633 L1071,645 L1072,641 L1073,642 L1073,649 L1070,665 L1072,665 L1081,647 L1086,622 L1087,590 L1086,589 L1086,578 L1084,569 L1084,552 L1083,551 L1085,502 L1093,461 L1104,433 L1113,419 L1123,409 L1129,405 L1139,401 L1146,402 L1144,401 L1145,400 L1155,400 L1163,403 L1161,404 L1164,403 L1177,411 L1181,416 L1180,417 L1181,418 L1182,417 L1189,427 L1194,442 L1196,439 L1197,417 L1194,402 L1190,390 L1184,377 L1176,365 L1177,363 L1176,364 L1154,330 L1142,305 L1143,302 L1142,303 L1137,292 L1130,262 L1129,236 L1132,215 L1139,192 L1147,176 L1148,177 L1147,175 L1152,166 L1154,164 L1155,165 L1154,163 L1158,157 L1167,147 L1168,148 L1167,147 L1169,145 L1170,146 L1169,145 L1178,137 L1180,138 L1178,137 L1185,132 L1188,133 L1186,132 L1191,129 L1195,130 L1193,129 L1201,126 L1215,126 L1215,124 L1205,118 L1198,116 L1178,116 L1152,122 L1109,139 L1076,157 L1043,179 L1013,202 L981,230 L980,229 L981,230 L979,232 L978,231 L979,232 L973,238 L971,237 L967,241 L966,234 L968,226 L969,225 L970,227 L971,225 L970,223 L971,218 L974,212 L977,211 L976,208 L978,206 L979,207 L978,205 L985,196 L985,194 L976,198 L969,203 L957,215 L944,235 L943,234 L944,236 L936,253 L930,273 L929,274 L928,272 L929,274 L928,279 L925,280 L925,281 L926,279 L927,280 L927,284 L925,289 L923,308 L918,328 L917,329 L916,327 L917,332 L912,348 L910,351 L909,350 L908,352 L909,350 L910,351 L909,356 L907,359 L906,357 L907,361 L905,364 L904,363 L903,364 L904,363 L905,366 L900,375 L899,374 L900,377 L889,398 L887,400 L886,399 L887,401 L880,412 L879,411 L880,412 L875,419 L874,418 L875,420 L870,426 L869,425 L870,426 L868,429 L867,428 L868,429 L866,432 L857,440 L858,441 L856,443 L855,442 L856,443 L850,449 L849,448 L850,449 L848,451 L847,450 L842,455 L843,456 L836,462 L834,463 L833,462 L829,465 L830,466 L821,473 L817,475 L815,474 L814,477 L812,478 L810,477 L811,478 L809,480 L798,485 L795,484 L797,485 L792,488 L790,488 L789,487 L791,486 L789,487 L790,488 L787,490 L783,489 L785,490 L782,492 L766,497 L763,496 L765,495 L757,497 L759,498 L758,499 L748,501 L742,500 L744,498 L745,499 L749,498 L748,497 L749,496 L747,498 L745,497 L751,492 L751,491 L743,490 L745,490 L746,491 L745,492 L739,491 L742,492 L729,498 L726,497 L727,498 L724,500 L723,499 L714,499 L712,497 L711,498 L710,497 L715,491 L721,487 L723,487 L724,485 L706,485 L703,484 L706,485 L695,489 L690,488 L692,489 L691,490 L684,490 L681,487 L664,460 L665,457 L664,458 L660,451 L655,434 L654,413 L653,412 L656,395 L659,386 L666,373 L672,367 L673,368 L677,362 L679,363 L678,362 L684,359 L685,360 L684,361 L689,363 L690,362 L692,364 L691,365 L692,366 L694,365 L696,367 L695,368 L696,367 L699,368 L700,371 L704,370 L705,371 L704,372 L709,371 L717,373 L718,374 L716,375 L718,374 L722,375 L725,377 L724,378 L725,377 L728,379 L727,380 L728,379 L737,387 L741,393 L743,399 L746,401 L746,407 L743,413 L742,412 L743,413 L742,417 L755,417 L761,414 L763,416 L772,411 L773,412 L775,410 L774,409 L779,404 L781,405 L780,403 L785,400 L784,399 L786,397 L785,391 L789,384 L790,386 L789,378 L781,382 L774,381 L774,376 L771,374 L772,373 L770,369 L777,365 L777,363 L775,364 L766,362 L762,358 L763,355 L762,357 L759,352 L760,348 L757,343 L758,341 L756,340 L756,337 L757,336 L758,338 L759,335 L762,334 L765,336 L765,340 L767,339 L772,340 L776,338 L778,339 L777,341 L778,342 L783,340 L787,340 L788,341 L787,347 L788,348 L794,345 L795,346 L799,343 L803,347 L804,345 L805,346 L804,351 L812,348 L817,344 L816,343 L821,338 L822,339 L821,337 L825,331 L827,324 L827,314 L825,308 L817,296 L818,295 L811,291 L805,295 L798,293 L794,294 L786,293 L785,292 L788,291 L784,290 L786,291 L783,292 L781,288 L782,283 L781,284 L779,281 L780,279 L779,280 L777,277 L778,275 L777,277 L774,273 L775,271 L768,263 L767,264 L765,262 L766,261 L761,256 L759,257 L758,254 L757,255 L752,252 L752,256 L755,264 L754,268 L749,264 L751,262 L750,263 L747,260 L746,261 L739,253 L737,254 L732,247 L733,246 L732,247 L730,244 L731,243 L730,244 L711,225 L712,224 L710,225 L702,219 L686,211 L652,200 L637,192 L618,176 L615,172 L616,171 L615,172 L613,170 L614,168 L613,169 L607,161 L608,160 L607,161 L604,157 L605,155 L606,156 L603,155 L600,149 L599,150 L600,157 L605,171 L607,173 L611,183 L620,195 L633,208 L641,214 L667,230 L665,231 L667,232 L666,235 L661,234 L660,231 L654,232 L653,231 L655,230 L651,229 L653,230 L652,231 L637,228 L641,227 L631,228 L611,223 L614,222 L608,223 L596,218 L597,217 L594,218 L578,210 L577,207 L576,209 L564,201 L560,195 L558,196 L545,183 L546,182 L545,183 L543,181 L544,179 L545,180 L539,176 L531,165 L532,162 L531,164 L529,161 L530,159 L529,160 L526,156 L526,154 L524,154 L526,162 L525,166 L526,165 L527,166 L526,170 L527,168 L538,192 L544,201 L543,202 L544,201 L546,204 L545,205 L546,204 L548,207 L547,208 L549,210 L550,209 L569,229 L583,240 L596,248 L615,257 L614,258 L600,258 L599,259 L584,258 L583,260 L574,260 L573,259 L578,258 L569,259 L564,257 L568,256 L561,257 L557,255 L559,254 L555,255 L550,252 L552,251 L550,252 L546,251 L542,248 L543,247 L540,245 L538,246 L537,245 L538,244 L536,242 L531,241 L525,236 L525,238 L532,247 L531,249 L530,248 L531,249 L532,248 L550,264 L570,274 L587,279 L595,280 L596,281 L595,282 L592,282 L595,283 L592,285 L594,286 L587,289 L586,291 L602,294 L605,296 L603,297 L608,301 L603,305 L599,306 L591,305 L595,306 L580,310 L572,314 L569,313 L568,316 L566,315 L567,316 L565,318 L563,317 L564,316 L563,317 L564,318 L549,332 L549,334 L551,333 L556,334 L558,333 L556,332 L557,331 L569,329 L578,331 L579,332 L577,333 L579,335 L580,334 L581,335 L576,343 L574,341 L575,344 L569,348 L567,347 L568,348 L557,356 L544,370 L543,368 L544,370 L539,377 L538,376 L539,378 L535,385 L535,387 L542,383 L543,384 L545,383 L546,380 L550,381 L552,380 L550,379 L551,378 L555,379 L553,378 L554,377 L561,377 L562,378 L560,390 L559,391 L558,389 L557,390 L557,392 L555,394 L556,396 L549,405 L543,417 L539,432 L539,438 L540,438 L544,433 L545,435 L544,433 L546,431 L548,432 L551,428 L553,428 L552,427 L553,425 L555,424 L556,425 L555,443 L554,444 L554,461 L555,462 L554,487 L555,483 L556,484 L556,495 L555,500 L552,501 L551,500 L553,498 L551,498 L552,499 L551,500 L547,500 L536,497 L535,496 L537,495 L529,492 L525,493 L516,489 L515,486 L511,484 L509,485 L508,484 L509,483 L508,484 L506,483 L507,482 L506,483 L503,482 L501,480 L502,479 L500,480 L496,474 L493,472 L491,473 L485,467 L484,462 L482,460 L481,461 L477,456 L470,440 L465,412 L465,386 L466,385 L466,373 L468,359 L478,318 L485,298 L494,284 L497,271 L497,246 L493,231 L487,220 L488,218 L487,219 L483,214 L484,212 L483,213 L471,200 L457,191 L450,189 L449,190 L452,193 L451,195 L455,200 L456,199 L463,209 L462,212 L463,215 L464,213 L465,214 L464,219 L465,216 L468,225 L468,229 L466,233 L463,231 L465,230 L465,228 L463,231 L452,222 L453,221 L452,220 L451,221 L439,211 L440,210 L439,211 L416,194 L388,177 L347,157 L297,139 L243,125 L179,115 L137,114 L126,117 L121,116 L123,117 L114,122 Z" fill="url(#dragonBlue)" fill-rule="evenodd"/>
</svg>
